<?xml version="1.0" encoding="UTF-8"?>
<svg version="1.1" xmlns="http://www.w3.org/2000/svg" width="90" height="89">
<path d="M0 0 C2.64 0 5.28 0 8 0 C8.33 1.32 8.66 2.64 9 4 C12.51146738 4.93437852 12.51146738 4.93437852 16 4.3125 C18 4 18 4 20.75 5.3125 C24.08392097 9.29468338 23.42910808 13.00327478 23 18 C23.9590625 18.2165625 23.9590625 18.2165625 24.9375 18.4375 C27 19 27 19 28 20 C28.375 22.75 28.375 22.75 28 26 C27.175 26.804375 26.35 27.60875 25.5 28.4375 C22.59577264 30.82848592 22.59577264 30.82848592 22.9375 34.5625 C22.958125 35.696875 22.97875 36.83125 23 38 C21.4375 40.4375 21.4375 40.4375 19 42 C17.865625 41.979375 16.73125 41.95875 15.5625 41.9375 C10.88745471 42.01951834 10.15907566 43.7599224 7 47 C3.8125 47.4375 3.8125 47.4375 1 47 C0.34 46.34 -0.32 45.68 -1 45 C-1 44.01 -1 43.02 -1 42 C-1.67546875 42.04640625 -2.3509375 42.0928125 -3.046875 42.140625 C-10.283184 42.43342363 -10.283184 42.43342363 -13.6875 40.375 C-15 38 -15 38 -14.4375 35.0625 C-14.293125 34.051875 -14.14875 33.04125 -14 32 C-16.27110728 29.14515489 -16.27110728 29.14515489 -19 27 C-20 26 -20 26 -20.1875 23.0625 C-20 20 -20 20 -18 18 C-17.01 18 -16.02 18 -15 18 C-14.05009864 14.47766229 -14.05009864 14.47766229 -14.75 11 C-15 9 -15 9 -12.875 6.1875 C-10 4 -10 4 -7.4375 4.25 C-6.633125 4.4975 -5.82875 4.745 -5 5 C-2.76832815 4.63143136 -2.76832815 4.63143136 -1 4 C-0.67 2.68 -0.34 1.36 0 0 Z " fill="#11110B" transform="translate(41,0)"/>
<path d="M0 0 C0.23332031 0.97839844 0.46664063 1.95679688 0.70703125 2.96484375 C3.0825633 11.84332392 5.65322897 16.44476794 13.3359375 21.953125 C19.19420558 26.45419901 22.70690044 32.75864248 24 40 C24.13524812 43.00927056 24.12282726 45.99073222 24 49 C24.99 49.33 25.98 49.66 27 50 C27.02689216 51.47906892 27.04634621 52.95827483 27.0625 54.4375 C27.07410156 55.26121094 27.08570313 56.08492187 27.09765625 56.93359375 C27 59 27 59 26 60 C24.45044441 60.09899523 22.89646327 60.13079524 21.34375 60.1328125 C19.93416016 60.13474609 19.93416016 60.13474609 18.49609375 60.13671875 C17.50738281 60.13285156 16.51867187 60.12898438 15.5 60.125 C14.51128906 60.12886719 13.52257812 60.13273437 12.50390625 60.13671875 C11.09431641 60.13478516 11.09431641 60.13478516 9.65625 60.1328125 C8.78806641 60.13168457 7.91988281 60.13055664 7.02539062 60.12939453 C5 60 5 60 4 59 C3.92820036 57.48071962 3.91607993 55.95832518 3.9375 54.4375 C3.94652344 53.61121094 3.95554687 52.78492188 3.96484375 51.93359375 C3.97644531 51.29550781 3.98804688 50.65742187 4 50 C5.485 49.505 5.485 49.505 7 49 C4.86631996 44.85815051 2.21649721 42.21052833 -1.28125 39.234375 C-5.83584223 33.3134051 -6.55193788 25.60524794 -7.1875 18.375 C-7.26935547 17.56804688 -7.35121094 16.76109375 -7.43554688 15.9296875 C-8.67174841 3.13136574 -8.67174841 3.13136574 -6.8125 0 C-4.28318672 -1.39548319 -2.73467152 -0.64450524 0 0 Z " fill="#070706" transform="translate(13,29)"/>
<path d="M0 0 C2.375 0.8125 2.375 0.8125 3.375 2.8125 C3.79424009 8.99133971 3.22345036 15.22592251 2.625 21.375 C2.5321875 22.57286133 2.5321875 22.57286133 2.4375 23.79492188 C1.66746081 31.66857256 -0.87470614 37.74422245 -6.8125 43.125 C-9.94763393 45.96273738 -9.94763393 45.96273738 -11.625 49.8125 C-10.14 50.3075 -10.14 50.3075 -8.625 50.8125 C-8.625 54.1125 -8.625 57.4125 -8.625 60.8125 C-15.885 60.8125 -23.145 60.8125 -30.625 60.8125 C-32.11797212 57.82655576 -31.74255228 55.10396376 -31.625 51.8125 C-31.295 51.1525 -30.965 50.4925 -30.625 49.8125 C-29.635 49.8125 -28.645 49.8125 -27.625 49.8125 C-27.83125 48.843125 -28.0375 47.87375 -28.25 46.875 C-29.28559542 39.46073711 -26.98321024 33.73846574 -22.625 27.8125 C-20.83013756 25.78860477 -18.93674164 23.88754634 -17 22 C-16.51015625 21.51080078 -16.0203125 21.02160156 -15.515625 20.51757812 C-11.90736607 16.95368304 -11.90736607 16.95368304 -9.625 15.8125 C-8.51400861 12.54699496 -7.63354817 9.24047753 -6.72265625 5.9140625 C-5.31900248 1.94786644 -4.43367486 -0.31669106 0 0 Z " fill="#050505" transform="translate(81.625,28.1875)"/>
<path d="M0 0 C2.64 0 5.28 0 8 0 C8.33 1.32 8.66 2.64 9 4 C12.51146738 4.93437852 12.51146738 4.93437852 16 4.3125 C18 4 18 4 20.75 5.3125 C24.08392097 9.29468338 23.42910808 13.00327478 23 18 C23.9590625 18.2165625 23.9590625 18.2165625 24.9375 18.4375 C27 19 27 19 28 20 C28.375 22.75 28.375 22.75 28 26 C27.175 26.804375 26.35 27.60875 25.5 28.4375 C22.59577264 30.82848592 22.59577264 30.82848592 22.9375 34.5625 C22.958125 35.696875 22.97875 36.83125 23 38 C21.4375 40.4375 21.4375 40.4375 19 42 C17.865625 41.979375 16.73125 41.95875 15.5625 41.9375 C10.88745471 42.01951834 10.15907566 43.7599224 7 47 C3.8125 47.4375 3.8125 47.4375 1 47 C0.34 46.34 -0.32 45.68 -1 45 C-1 44.01 -1 43.02 -1 42 C-1.67546875 42.04640625 -2.3509375 42.0928125 -3.046875 42.140625 C-10.283184 42.43342363 -10.283184 42.43342363 -13.6875 40.375 C-15 38 -15 38 -14.4375 35.0625 C-14.293125 34.051875 -14.14875 33.04125 -14 32 C-16.27110728 29.14515489 -16.27110728 29.14515489 -19 27 C-20 26 -20 26 -20.1875 23.0625 C-20 20 -20 20 -18 18 C-17.01 18 -16.02 18 -15 18 C-14.05009864 14.47766229 -14.05009864 14.47766229 -14.75 11 C-15 9 -15 9 -12.875 6.1875 C-10 4 -10 4 -7.4375 4.25 C-6.633125 4.4975 -5.82875 4.745 -5 5 C-2.76832815 4.63143136 -2.76832815 4.63143136 -1 4 C-0.67 2.68 -0.34 1.36 0 0 Z M2 3 C1.67 3.99 1.34 4.98 1 6 C-2.71055417 8.01430083 -5.82851735 8.19402245 -10 8 C-10.56539517 10.18080993 -11.06838701 12.35048343 -11.5 14.5625 C-12 17 -12 17 -13 20 C-13.99 20.33 -14.98 20.66 -16 21 C-15.58204947 24.60919886 -15.58204947 24.60919886 -13.5 27.4375 C-11.32041277 29.70790336 -11.38250086 31.93999312 -11 35 C-10.67 35.99 -10.34 36.98 -10 38 C-9.113125 37.938125 -8.22625 37.87625 -7.3125 37.8125 C-3.62170254 38.02141306 -1.93635736 38.81870596 1 41 C1.33 41.66 1.66 42.32 2 43 C3.32 43 4.64 43 6 43 C6.66 42.01 7.32 41.02 8 40 C10.72875382 38.05089013 11.84844476 37.98251286 15.25 38.375 C16.1575 38.58125 17.065 38.7875 18 39 C18.144375 38.278125 18.28875 37.55625 18.4375 36.8125 C18.7159375 35.4203125 18.7159375 35.4203125 19 34 C19.103125 33.154375 19.20625 32.30875 19.3125 31.4375 C20.17282154 28.38726908 21.79060558 27.20939442 24 25 C24 23.68 24 22.36 24 21 C23.01 20.67 22.02 20.34 21 20 C18.98569917 16.28944583 18.80597755 13.17148265 19 9 C16.3093858 8.1031286 14.11102904 7.72140874 11.3125 7.4375 C10.10013672 7.31181641 10.10013672 7.31181641 8.86328125 7.18359375 C8.24839844 7.12300781 7.63351563 7.06242188 7 7 C6.67 5.68 6.34 4.36 6 3 C4.68 3 3.36 3 2 3 Z " fill="#0B0900" transform="translate(41,0)"/>
<path d="M0 0 C1.32 0 2.64 0 4 0 C4.33 1.32 4.66 2.64 5 4 C10.445 4.495 10.445 4.495 16 5 C16.54422942 7.17691768 17.07026696 9.36011816 17.5 11.5625 C17.97476438 14.12286851 17.97476438 14.12286851 19 17 C19.99 17.33 20.98 17.66 22 18 C22 19.32 22 20.64 22 22 C20.66666667 23.33333333 19.33333333 24.66666667 18 26 C17.24680201 28.43259568 17.24680201 28.43259568 17 31 C16.66666667 32.66666667 16.33333333 34.33333333 16 36 C15.113125 35.773125 14.22625 35.54625 13.3125 35.3125 C9.39348266 34.94278138 8.06693824 35.63407622 5 38 C4.67 38.66 4.34 39.32 4 40 C2.68 40 1.36 40 0 40 C-0.66 39.01 -1.32 38.02 -2 37 C-5.29388671 34.76486259 -8.09305679 34.82241167 -12 35 C-13 32 -13 32 -13.3125 29.0625 C-14.1181921 25.47350791 -15.41941149 24.49734372 -18 22 C-18 20.68 -18 19.36 -18 18 C-17.01 17.67 -16.02 17.34 -15 17 C-12.98569917 13.28944583 -12.80597755 10.17148265 -13 6 C-9.99149095 4.99716365 -7.12232189 4.52038698 -4 4 C-3.01 3.67 -2.02 3.34 -1 3 C-0.67 2.01 -0.34 1.02 0 0 Z M-9.875 13.25 C-11.38657876 16.9449703 -11.58433082 20.06177038 -11 24 C-9.22246532 28.11639609 -6.88962212 30.76553623 -3 33 C1.60685109 33.68305865 5.60586335 33.56358716 9.9375 31.8125 C13.09833986 29.03479225 14.70960632 26.90830133 15.35546875 22.6640625 C15.59897801 18.28089574 15.55295812 15.02099986 12.75 11.5 C8.48025849 7.61841681 5.97017151 6.51759297 0.02734375 6.68359375 C-4.37715431 7.37100096 -7.11259365 9.93511238 -9.875 13.25 Z " fill="#F2D800" transform="translate(43,3)"/>
<path d="M0 0 C0.66 0 1.32 0 2 0 C0.6093949 30.55671727 0.6093949 30.55671727 -8.6875 39.625 C-9.59048828 40.44871094 -9.59048828 40.44871094 -10.51171875 41.2890625 C-12.35933883 43.15181747 -12.35933883 43.15181747 -13 47 C-16.3 47 -19.6 47 -23 47 C-23.4679049 36.29017665 -22.00068183 30.80757064 -14.77734375 22.8359375 C-12.66068252 20.64949623 -10.5116546 18.72227744 -8 17 C-7.34 17 -6.68 17 -6 17 C-7.44424635 20.23861303 -9.25772247 22.61969163 -11.625 25.25 C-12.25664063 25.95640625 -12.88828125 26.6628125 -13.5390625 27.390625 C-14.02117187 27.92171875 -14.50328125 28.4528125 -15 29 C-14.34 29.33 -13.68 29.66 -13 30 C-12.51789063 29.44570313 -12.03578125 28.89140625 -11.5390625 28.3203125 C-10.90742187 27.59585938 -10.27578125 26.87140625 -9.625 26.125 C-8.99851562 25.40570313 -8.37203125 24.68640625 -7.7265625 23.9453125 C-6.52573166 22.5923402 -5.2791655 21.2791655 -4 20 C-3.87104979 18.12420518 -3.87104979 18.12420518 -4.0625 16 C-4.20145866 10.65009162 -2.90491518 5.97449353 -1 1 C-0.67 0.67 -0.34 0.34 0 0 Z " fill="#F5BD80" transform="translate(80,31)"/>
<path d="M0 0 C2 1 2 1 2.8515625 3.2578125 C5.04213983 11.37843754 5.04213983 11.37843754 4.75 15.6875 C5.09025571 20.19588818 7.1703133 21.9704194 10.2734375 25.10546875 C11.98537779 26.98395527 12.98364306 28.68496475 14 31 C14.66 30.34 15.32 29.68 16 29 C15.51789062 28.46890625 15.03578125 27.9378125 14.5390625 27.390625 C13.90742188 26.68421875 13.27578125 25.9778125 12.625 25.25 C11.99851562 24.55390625 11.37203125 23.8578125 10.7265625 23.140625 C9.12494817 21.15491312 8.03479932 19.32045907 7 17 C13.98533388 19.39323613 19.91437646 25.33378564 23.390625 31.859375 C24.78150321 36.74528052 24.27197508 41.97601579 24 47 C20.7 47 17.4 47 14 47 C13.505 45.515 13.505 45.515 13 44 C11.22514734 39.73863877 8.31579256 37.23032703 4.83984375 34.28515625 C0.0827966 28.37672189 0.40167228 19.32895818 -0.1875 12.0625 C-0.28224609 11.00998047 -0.37699219 9.95746094 -0.47460938 8.87304688 C-0.96129856 3.11822589 -0.96129856 3.11822589 -1 1 C-0.67 0.67 -0.34 0.34 0 0 Z " fill="#F8C182" transform="translate(9,31)"/>
<path d="M0 0 C3.39890142 2.06889652 5.88937011 4.11279537 7 8 C6.75779748 12.52111374 6.26668124 15.73331876 3 19 C2.34 19 1.68 19 1 19 C1 18.01 1 17.02 1 16 C1.66 16 2.32 16 3 16 C3.9729927 10.78291847 3.9729927 10.78291847 3.375 5.625 C1.54147875 3.45811125 -0.32879201 2.84353936 -3 2 C-3 4.31 -3 6.62 -3 9 C-3.66 9 -4.32 9 -5 9 C-5 6.69 -5 4.38 -5 2 C-8.72614153 3.11854586 -8.72614153 3.11854586 -11 6 C-11.58184185 11.36963287 -11.58184185 11.36963287 -9.5 16 C-9.005 16.33 -8.51 16.66 -8 17 C-8.33 17.99 -8.66 18.98 -9 20 C-12.22261953 16.77738047 -14.35871771 14.60677249 -14.5625 9.9375 C-13.94840565 5.63883954 -13.0775461 3.98703004 -10 1 C-6.79386153 -0.60306924 -3.47860003 -0.48740461 0 0 Z " fill="#D7DBDE" transform="translate(49,13)"/>
<path d="M0 0 C0.66 0 1.32 0 2 0 C1.85790331 2.6877438 1.7114277 5.37513302 1.5625 8.0625 C1.50352539 9.19075195 1.50352539 9.19075195 1.44335938 10.34179688 C1.18449913 14.94154422 0.88859074 19.47466042 0 24 C-0.66 24.33 -1.32 24.66 -2 25 C-2.33 24.34 -2.66 23.68 -3 23 C-5.31 24.98 -7.62 26.96 -10 29 C-9 25 -9 25 -6.4375 22.8125 C-3.39605289 19.30313795 -3.74494142 17.90398253 -4.01953125 13.48828125 C-3.98754887 9.41372628 -2.99999928 2.99999928 0 0 Z " fill="#F1C283" transform="translate(80,31)"/>
<path d="M0 0 C0 2.31 0 4.62 0 7 C0.66 7 1.32 7 2 7 C2 4.69 2 2.38 2 0 C5.35760377 0.27223814 6.64317461 0.58370371 8.875 3.1875 C10.26655784 6.66639459 10.17993058 8.46020825 9 12 C7.0625 13.3125 7.0625 13.3125 5 14 C4.01 14.495 4.01 14.495 3 15 C3.309375 14.443125 3.61875 13.88625 3.9375 13.3125 C5.33829914 10.26370188 6 7.35658348 6 4 C5.34 4 4.68 4 4 4 C4 5.65 4 7.3 4 9 C2.34385343 9.38218767 0.67542976 9.71395102 -1 10 C-2 9 -2 9 -2.0625 6.4375 C-2.041875 5.633125 -2.02125 4.82875 -2 4 C-2.66 4 -3.32 4 -4 4 C-4.33 4.66 -4.66 5.32 -5 6 C-5.66 6 -6.32 6 -7 6 C-4.84615385 0 -4.84615385 0 0 0 Z " fill="#0A0C0E" transform="translate(44,15)"/>
<path d="M0 0 C5.28 0 10.56 0 16 0 C16 1.65 16 3.3 16 5 C10.72 5 5.44 5 0 5 C0 3.35 0 1.7 0 0 Z " fill="#0596F4" transform="translate(54,81)"/>
<path d="M0 0 C5.28 0 10.56 0 16 0 C16 1.65 16 3.3 16 5 C10.72 5 5.44 5 0 5 C0 3.35 0 1.7 0 0 Z " fill="#0594F0" transform="translate(20,81)"/>
<path d="M0 0 C0.66 0 1.32 0 2 0 C2.33 1.65 2.66 3.3 3 5 C4.32 5 5.64 5 7 5 C7.33 3.35 7.66 1.7 8 0 C8.66 0 9.32 0 10 0 C10.6875 2.8125 10.6875 2.8125 11 6 C9.625 7.5 9.625 7.5 8 9 C7.2730774 12.10839021 7.2730774 12.10839021 7 15 C5.125 14.875 5.125 14.875 3 14 C1.8125 11 1.8125 11 1 8 C0.67 7.67 0.34 7.34 0 7 C-0.04092937 4.66702567 -0.04241723 2.33294775 0 0 Z " fill="#2C4D6D" transform="translate(40,19)"/>
<path d="M0 0 C2 1 2 1 2.8515625 3.36328125 C3.10679688 4.33652344 3.36203125 5.30976562 3.625 6.3125 C3.88539062 7.27800781 4.14578125 8.24351563 4.4140625 9.23828125 C5 12 5 12 5 16 C4.01 16 3.02 16 2 16 C2 18.64 2 21.28 2 24 C1.67 24 1.34 24 1 24 C0.6371686 20.18827189 0.28618563 16.37554607 -0.0625 12.5625 C-0.16626953 11.47388672 -0.27003906 10.38527344 -0.37695312 9.26367188 C-0.47041016 8.22919922 -0.56386719 7.19472656 -0.66015625 6.12890625 C-0.74918213 5.17056885 -0.83820801 4.21223145 -0.92993164 3.22485352 C-0.9530542 2.49065186 -0.97617676 1.7564502 -1 1 C-0.67 0.67 -0.34 0.34 0 0 Z " fill="#E8BA7E" transform="translate(9,31)"/>
<path d="M0 0 C3.9467445 1.32935722 6.30715567 2.94573036 9.1875 5.9375 C9.86167969 6.62714844 10.53585938 7.31679688 11.23046875 8.02734375 C13 10 13 10 15 13 C14.67 13.99 14.34 14.98 14 16 C13.67 15.34 13.34 14.68 13 14 C12.39414062 13.70867188 11.78828125 13.41734375 11.1640625 13.1171875 C8.61678235 11.80216562 7.23472247 10.29604165 5.375 8.125 C4.78460937 7.44695313 4.19421875 6.76890625 3.5859375 6.0703125 C2.08681913 4.11333531 1.01430932 2.23951463 0 0 Z " fill="#F3CA89" transform="translate(16,48)"/>
<path d="M0 0 C1.65 0 3.3 0 5 0 C4.01 0.495 4.01 0.495 3 1 C3.47050781 1.51949219 3.94101562 2.03898437 4.42578125 2.57421875 C7.67440177 6.21294277 10.69660472 9.66419713 13 14 C12.01 14.33 11.02 14.66 10 15 C8.894019 13.75160501 7.79029799 12.50120766 6.6875 11.25 C6.07261719 10.55390625 5.45773438 9.8578125 4.82421875 9.140625 C0 3.47965739 0 3.47965739 0 0 Z " fill="#1A130D" transform="translate(13,47)"/>
<path d="M0 0 C-1.42557621 3.17903494 -3.1773152 5.53658432 -5.5 8.125 C-6.1084375 8.80820312 -6.716875 9.49140625 -7.34375 10.1953125 C-8.53304924 11.49119988 -9.75626434 12.75626434 -11 14 C-11.99 13.67 -12.98 13.34 -14 13 C-11.27514907 8.34504633 -5.8950728 0 0 0 Z " fill="#E9BF81" transform="translate(74,48)"/>
<path d="M0 0 C0.73828125 1.74609375 0.73828125 1.74609375 1 4 C-0.58203125 6.03515625 -0.58203125 6.03515625 -2.8125 8.0625 C-5.28737394 10.34464039 -7.11822675 12.17734013 -9 15 C-9.99 14.67 -10.98 14.34 -12 14 C-8.70028684 9.32824116 -5.63297414 5.44163793 -1 2 C-0.67 1.34 -0.34 0.68 0 0 Z " fill="#1E150E" transform="translate(76,47)"/>
<path d="M0 0 C0.66 0 1.32 0 2 0 C1.67 5.61 1.34 11.22 1 17 C0.67 17 0.34 17 0 17 C0 15.02 0 13.04 0 11 C-0.99 11 -1.98 11 -3 11 C-2.69217504 9.35328588 -2.37860766 7.70764424 -2.0625 6.0625 C-1.88847656 5.14597656 -1.71445313 4.22945312 -1.53515625 3.28515625 C-1 1 -1 1 0 0 Z " fill="#CEA671" transform="translate(80,31)"/>
<path d="M0 0 C0.66 0 1.32 0 2 0 C2.433125 1.423125 2.433125 1.423125 2.875 2.875 C3.76825109 6.05211578 3.76825109 6.05211578 6 8 C5.34 8 4.68 8 4 8 C4 8.66 4 9.32 4 10 C4.66 10 5.32 10 6 10 C6 11.32 6 12.64 6 14 C5.01 14 4.02 14 3 14 C2.690625 13.030625 2.38125 12.06125 2.0625 11.0625 C1.30476658 8.15934208 1.30476658 8.15934208 0 7 C-0.04092937 4.66702567 -0.04241723 2.33294775 0 0 Z " fill="#315679" transform="translate(40,19)"/>
<path d="M0 0 C0.33 0 0.66 0 1 0 C1.144375 0.7425 1.28875 1.485 1.4375 2.25 C1.90187492 4.52027739 2.41863569 6.75759479 3 9 C1.1875 9.625 1.1875 9.625 -1 10 C-1.99 9.34 -2.98 8.68 -4 8 C-4 6.68 -4 5.36 -4 4 C-3.01 3.67 -2.02 3.34 -1 3 C-0.67 2.01 -0.34 1.02 0 0 Z " fill="#EACE00" transform="translate(29,17)"/>
<path d="M0 0 C0.99 0.33 1.98 0.66 3 1 C3.05399736 2.45792884 3.09279177 3.91642712 3.125 5.375 C3.14820313 6.18710938 3.17140625 6.99921875 3.1953125 7.8359375 C3 10 3 10 1 12 C-1 9 -3 6 -5 3 C-2.525 3.99 -2.525 3.99 0 5 C0.33 4.34 0.66 3.68 1 3 C0.34 2.34 -0.32 1.68 -1 1 C-0.67 0.67 -0.34 0.34 0 0 Z " fill="#F9E600" transform="translate(57,8)"/>
<path d="M0 0 C0 0.66 0 1.32 0 2 C-1.99330842 3.34331654 -3.99384866 4.67594012 -6 6 C-6.99 7.485 -6.99 7.485 -8 9 C-8.66 9 -9.32 9 -10 9 C-9.70820766 5.49849196 -9.21713533 4.21713533 -6.6875 1.6875 C-4 0 -4 0 0 0 Z " fill="#0D0B04" transform="translate(43,11)"/>
<path d="M0 0 C0.66 0.33 1.32 0.66 2 1 C2.6875 4 2.6875 4 3 7 C2.67 7.33 2.34 7.66 2 8 C1.63239269 10.32817964 1.29758419 12.6618385 1 15 C0.67 15 0.34 15 0 15 C-0.19390729 12.68802845 -0.37996367 10.3753971 -0.5625 8.0625 C-0.71912109 6.13083984 -0.71912109 6.13083984 -0.87890625 4.16015625 C-0.91886719 3.11730469 -0.95882813 2.07445312 -1 1 C-0.67 0.67 -0.34 0.34 0 0 Z " fill="#CEA671" transform="translate(9,31)"/>
<path d="M0 0 C0.66 0.66 1.32 1.32 2 2 C-2.95 3.485 -2.95 3.485 -8 5 C-8.33 3.68 -8.66 2.36 -9 1 C-5.66429909 -1.10025613 -3.74952434 -1.18406032 0 0 Z " fill="#ECD400" transform="translate(44,8)"/>
<path d="M0 0 C-1.5830577 4.2742558 -4.50568404 6.26531794 -8 9 C-7.70100785 5.41209425 -7.23013399 4.21833224 -4.5625 1.6875 C-2 0 -2 0 0 0 Z " fill="#F4D28E" transform="translate(74,48)"/>
<path d="M0 0 C0.33 0 0.66 0 1 0 C1.268125 1.093125 1.53625 2.18625 1.8125 3.3125 C2.87663739 6.61692663 3.34654664 7.94960422 6 10 C5.67 10.99 5.34 11.98 5 13 C0.07692308 7.95384615 0.07692308 7.95384615 -0.3125 3.125 C-0.209375 2.09375 -0.10625 1.0625 0 0 Z " fill="#E1E4E6" transform="translate(35,20)"/>
<path d="M0 0 C0.33 0 0.66 0 1 0 C0.25531915 7.74468085 0.25531915 7.74468085 -3 11 C-3.66 11 -4.32 11 -5 11 C-5 10.01 -5 9.02 -5 8 C-4.34 8 -3.68 8 -3 8 C-2.67 6.68 -2.34 5.36 -2 4 C-1.34 4 -0.68 4 0 4 C0 2.68 0 1.36 0 0 Z " fill="#C1C4C7" transform="translate(55,21)"/>
<path d="M0 0 C0.99 0.33 1.98 0.66 3 1 C3 2.98 3 4.96 3 7 C2.01 7.33 1.02 7.66 0 8 C0 5.36 0 2.72 0 0 Z " fill="#1E1D15" transform="translate(32,19)"/>
<path d="M0 0 C0 4.38968456 -2.12805101 5.76905739 -5 9 C-5.99 8.67 -6.98 8.34 -8 8 C-5.33333333 5.33333333 -2.66666667 2.66666667 0 0 Z " fill="#140F0A" transform="translate(72,53)"/>
<path d="M0 0 C3.65316671 1.24976756 4.78065836 1.67098753 7 5 C6.01 5.33 5.02 5.66 4 6 C2.62437146 4.71034824 1.29233607 3.37310707 0 2 C0 1.34 0 0.68 0 0 Z " fill="#E2C384" transform="translate(16,48)"/>
</svg>
