<?xml version="1.0" encoding="UTF-8"?>
<svg version="1.1" xmlns="http://www.w3.org/2000/svg" width="90" height="89">
<path d="M0 0 C1.2375 0.0825 2.475 0.165 3.75 0.25 C4.245 2.23 4.245 2.23 4.75 4.25 C5.9875 4.1675 7.225 4.085 8.5 4 C11.49801006 4.02122485 12.56490282 4.13609405 15.1875 5.75 C17.38640725 9.26825161 17.47498419 12.12476285 17.75 16.25 C18.74 16.58 19.73 16.91 20.75 17.25 C20.75 20.22 20.75 23.19 20.75 26.25 C19.43 26.58 18.11 26.91 16.75 27.25 C16.77320313 27.85328125 16.79640625 28.4565625 16.8203125 29.078125 C16.83835938 29.87734375 16.85640625 30.6765625 16.875 31.5 C16.89820313 32.28890625 16.92140625 33.0778125 16.9453125 33.890625 C16.75 36.25 16.75 36.25 15.7109375 38.25 C14.48322163 40.80524603 14.79106015 42.2287094 15.25 45 C15.89119287 49.96740226 15.24706794 53.49460772 13.75 58.25 C14.22308594 58.5903125 14.69617188 58.930625 15.18359375 59.28125 C19.11985014 62.16630342 22.98377372 65.1462953 26.75 68.25 C27.513125 68.86875 28.27625 69.4875 29.0625 70.125 C30.75 72.25 30.75 72.25 31.140625 75.31640625 C30.75 78.25 30.75 78.25 28.5 81.1875 C25.75 83.25 25.75 83.25 23.9609375 83.19921875 C20.67039271 81.78649369 18.23561168 79.51329682 15.625 77.125 C15.08746094 76.66351563 14.54992187 76.20203125 13.99609375 75.7265625 C10.10585164 72.19527041 8.7895792 69.39655875 7.75 64.25 C6.863125 64.91 5.97625 65.57 5.0625 66.25 C-0.25831595 69.34833521 -6.28951093 68.75851725 -12.25 68.25 C-12.91 67.92 -13.57 67.59 -14.25 67.25 C-15.24 72.2 -15.24 72.2 -16.25 77.25 C-16.91 77.25 -17.57 77.25 -18.25 77.25 C-18.353125 77.971875 -18.45625 78.69375 -18.5625 79.4375 C-19.36520115 82.72127745 -19.99231989 84.70100633 -22.25 87.25 C-25.04466123 87.69184367 -27.39519114 87.48400073 -30.25 87.25 C-34.71145463 80.1752014 -37.12793495 73.76735408 -38.51171875 65.51171875 C-39.29375826 62.05667649 -40.65345688 59.39574938 -42.25 56.25 C-43.27423192 51.2824752 -42.61115552 47.24871799 -40.0625 42.875 C-37.8070361 39.71483748 -35.94635356 37.6781366 -32.25 36.25 C-30.73142361 36.1000508 -29.21003766 35.97716701 -27.6875 35.875 C-24.09953895 35.58844071 -23.4976554 35.48527263 -20.75 32.875 C-19.14785618 30.27042876 -19.14785618 30.27042876 -18.25 27.25 C-19.57 26.92 -20.89 26.59 -22.25 26.25 C-22.60370611 20.94440832 -22.60370611 20.94440832 -22.25 18.25 C-20.95766393 16.87689293 -19.62562854 15.53965176 -18.25 14.25 C-18.25 13.26 -18.25 12.27 -18.25 11.25 C-18.25 8.25 -18.25 8.25 -16.625 5.875 C-13.62552696 3.82272898 -11.81776605 4.25 -8.25 4.25 C-7.63125 3.59 -7.0125 2.93 -6.375 2.25 C-3.89626344 -0.08292853 -3.27192291 -0.02296086 0 0 Z " fill="#161613" transform="translate(54.25,0.75)"/>
<path d="M0 0 C5.03359633 2.3843351 8.49996787 5.99993573 11 11 C11.50239048 16.50158755 11.76205731 21.38795569 9.375 26.4375 C4.98939144 31.16934081 1.44820317 34.50665383 -5.1484375 35.23828125 C-10.65885858 35.42196195 -13.67929723 34.73151603 -18 31 C-23.26912906 25.40244284 -24.46906293 21.75698653 -24.4140625 14.12109375 C-23.77338989 9.29187282 -21.57490155 6.21818686 -18 3 C-12.38736675 -1.10958909 -6.70720406 -0.76026243 0 0 Z " fill="#94D7F0" transform="translate(55,31)"/>
<path d="M0 0 C4.10601848 1.77305344 6.66278175 4.19119988 9 8 C9.88606376 13.98093038 8.29444149 17.19952812 5 22 C0.54422653 24.97051564 -3.77442606 24.62737491 -9 24 C-12.53214485 21.98163151 -14.80160052 19.92203467 -16 16 C-16.86709334 9.38841327 -16.86709334 9.38841327 -14.7265625 5.9609375 C-10.26169974 0.66844164 -7.07059951 -0.74929282 0 0 Z " fill="#EAECEE" transform="translate(52,36)"/>
<path d="M0 0 C1.9375 0.375 1.9375 0.375 4 1 C4.33 1.66 4.66 2.32 5 3 C6.45156297 3.23421634 7.91224343 3.41338404 9.375 3.5625 C11.83203125 4.03515625 11.83203125 4.03515625 14 5 C16.0667101 8.37200069 17 12.04954051 17 16 C17.99 16.33 18.98 16.66 20 17 C20 18.32 20 19.64 20 21 C19.01 21 18.02 21 17 21 C16.67 24.3 16.34 27.6 16 31 C12 31 12 31 10.25 29.5 C9.8375 29.005 9.425 28.51 9 28 C9.33 27.360625 9.66 26.72125 10 26.0625 C11.63421165 21.05772683 11.66550691 15.99652074 10 11 C4.99653643 8.55928606 1.2804467 8.80764107 -4 10 C-6.68620182 11.26938424 -6.68620182 11.26938424 -8 14 C-8.31656151 17.36082802 -8.23113261 20.63573652 -8 24 C-9.65 24.33 -11.3 24.66 -13 25 C-13.33 24.01 -13.66 23.02 -14 22 C-14.99 21.67 -15.98 21.34 -17 21 C-16.67 19.35 -16.34 17.7 -16 16 C-15.34 16 -14.68 16 -14 16 C-13.34 12.7 -12.68 9.4 -12 6 C-10.906875 5.690625 -9.81375 5.38125 -8.6875 5.0625 C-3.43385793 3.82968784 -3.43385793 3.82968784 0 0 Z " fill="#837683" transform="translate(52,4)"/>
<path d="M0 0 C4.95520521 2.57289501 8.49116963 5.98233926 11 11 C11.61143762 16.91056366 10.91805264 20.4158042 7.47265625 25.30078125 C4.62248461 28.58944083 1.89997139 29.72318298 -2.359375 30.34375 C-7.76534356 30.67138446 -11.40794529 30.00483734 -15.59375 26.48046875 C-18.85332302 23.04886271 -20.15403389 19.6506158 -20.4375 15 C-20.25901024 10.74869845 -18.75060628 8.27099125 -16 5 C-11.06158407 0.54338074 -6.65712012 -0.90951167 0 0 Z M-16 9 C-17.60632723 12.21265446 -17.47931944 15.51521812 -17 19 C-14.98497111 22.75212276 -13.54533858 24.63644095 -10 27 C-4.65427448 27.78613611 -0.3687983 28.00564773 4.0625 24.75 C7.4525926 19.93825566 8.82464976 17.08179195 8 11 C5.60226073 7.18025763 3.320681 4.440227 -1 3 C-8.04346188 2.17826278 -11.28063477 3.71978267 -16 9 Z " fill="#161B1E" transform="translate(53,33)"/>
<path d="M0 0 C0 4.95 0 9.9 0 15 C-0.66 15 -1.32 15 -2 15 C-2.33 13.02 -2.66 11.04 -3 9 C-4.99954746 8.95745644 -7.00041636 8.95919217 -9 9 C-10.35618499 10.12534105 -10.35618499 10.12534105 -10.0625 13.0625 C-10.041875 14.031875 -10.02125 15.00125 -10 16 C-7.525 16.99 -7.525 16.99 -5 18 C-5 22.29 -5 26.58 -5 31 C-5.99 31 -6.98 31 -8 31 C-8.26554687 30.25234375 -8.53109375 29.5046875 -8.8046875 28.734375 C-9.15789063 27.74953125 -9.51109375 26.7646875 -9.875 25.75 C-10.22304688 24.77546875 -10.57109375 23.8009375 -10.9296875 22.796875 C-11.91503493 20.06710498 -11.91503493 20.06710498 -13.109375 17.8515625 C-14.57889907 14.79649931 -14.34456125 12.33075872 -14 9 C-10.2491102 2.03406181 -7.97975268 0 0 0 Z " fill="#F1DF77" transform="translate(29,40)"/>
<path d="M0 0 C2.4375 1.5 2.4375 1.5 4 4 C4.44551093 6.85352572 4.28388062 9.06656695 4 12 C2 14 2 14 -0.78515625 14.046875 C-1.86667969 13.94890625 -2.94820312 13.8509375 -4.0625 13.75 C-5.14660156 13.66234375 -6.23070312 13.5746875 -7.34765625 13.484375 C-8.66056641 13.24460937 -8.66056641 13.24460937 -10 13 C-11.54586876 9.90826248 -11.29359521 7.40570448 -11 4 C-8.11188513 -0.5054592 -5.11821063 -0.73117295 0 0 Z " fill="#E9EBED" transform="translate(57,15)"/>
<path d="M0 0 C3.45201639 1.47721422 5.64961936 3.43794001 8.25 6.125 C8.95640625 6.84945312 9.6628125 7.57390625 10.390625 8.3203125 C11.18726562 9.15175781 11.18726562 9.15175781 12 10 C11.01 11.32 10.02 12.64 9 14 C5.12488273 13.45015228 3.40423494 11.72444669 0.75 8.9375 C0.04359375 8.20402344 -0.6628125 7.47054687 -1.390625 6.71484375 C-1.92171875 6.14894531 -2.4528125 5.58304687 -3 5 C-1.125 1.125 -1.125 1.125 0 0 Z " fill="#EBBE87" transform="translate(71,66)"/>
<path d="M0 0 C2.31 0.66 4.62 1.32 7 2 C7 6.29 7 10.58 7 15 C6.01 15 5.02 15 4 15 C3.35366725 13.22934889 2.7079517 11.45847247 2.0625 9.6875 C1.70285156 8.70136719 1.34320312 7.71523438 0.97265625 6.69921875 C0.29114035 4.8079437 -0.3642811 2.90715671 -1 1 C-0.67 0.67 -0.34 0.34 0 0 Z " fill="#F9EB7E" transform="translate(17,56)"/>
<path d="M0 0 C0.33 0 0.66 0 1 0 C1 1.65 1 3.3 1 5 C1.66 5 2.32 5 3 5 C3.25394531 5.55429687 3.50789063 6.10859375 3.76953125 6.6796875 C4.11371094 7.40414062 4.45789062 8.12859375 4.8125 8.875 C5.14894531 9.59429687 5.48539063 10.31359375 5.83203125 11.0546875 C6.99467097 13.30542806 6.99467097 13.30542806 10 15 C12.27912938 15.45394552 12.27912938 15.45394552 14.6875 15.625 C15.49574219 15.69976562 16.30398437 15.77453125 17.13671875 15.8515625 C17.75160156 15.90054688 18.36648437 15.94953125 19 16 C19 16.33 19 16.66 19 17 C16.69 17 14.38 17 12 17 C12 17.66 12 18.32 12 19 C6.87360287 17.38884661 3.81304673 14.50373121 0.6875 10.1875 C-0.38510065 6.77467976 -0.11885992 3.56579746 0 0 Z " fill="#1D2328" transform="translate(33,44)"/>
<path d="M0 0 C0 0.66 0 1.32 0 2 C-0.88751953 2.22042969 -0.88751953 2.22042969 -1.79296875 2.4453125 C-7.72959317 4.13042286 -10.64932573 5.76457146 -14 11 C-14.86542699 13.72113503 -14.86542699 13.72113503 -15 16 C-15.66 16 -16.32 16 -17 16 C-17.41269478 12.62965931 -17.61607781 10.03716803 -15.83984375 7.046875 C-11.19234896 1.38905526 -7.39367248 -0.34389174 0 0 Z " fill="#090B0C" transform="translate(51,33)"/>
<path d="M0 0 C2.47142556 3.70713834 2.66909211 6.69985925 2 11 C-0.0744493 14.85254869 -2.53407352 18.29224494 -6 21 C-8.25 20.75 -8.25 20.75 -10 20 C-9.071875 19.29875 -8.14375 18.5975 -7.1875 17.875 C-2.6121844 14.01187975 -0.99461318 10.0059217 -0.3125 4.125 C-0.19685939 2.75091742 -0.08868107 1.37608552 0 0 Z " fill="#94D9F2" transform="translate(64,43)"/>
<path d="M0 0 C0.69480469 0.32742187 1.38960937 0.65484375 2.10546875 0.9921875 C5.36368828 2.12662831 7.87449502 2.20056055 11.3125 2.125 C12.38113281 2.10695312 13.44976562 2.08890625 14.55078125 2.0703125 C15.76314453 2.03550781 15.76314453 2.03550781 17 2 C17.33 2.99 17.66 3.98 18 5 C12.55083653 6.53219109 7.19699047 6.94156734 1.9375 4.6875 C1.298125 4.130625 0.65875 3.57375 0 3 C0 2.01 0 1.02 0 0 Z " fill="#86C3DC" transform="translate(38,60)"/>
<path d="M0 0 C0.33 0.99 0.66 1.98 1 3 C-5.49919692 9.86026341 -5.49919692 9.86026341 -10.02734375 10.11328125 C-12.01855955 10.12377975 -14.00986185 10.06633794 -16 10 C-16 9.34 -16 8.68 -16 8 C-15.43152344 7.92523438 -14.86304688 7.85046875 -14.27734375 7.7734375 C-8.00991166 6.70619531 -4.42263059 4.52217533 0 0 Z " fill="#0B0E10" transform="translate(61,53)"/>
<path d="M0 0 C0 2.97 0 5.94 0 9 C-4 9 -4 9 -5.75 7.5 C-6.1625 7.005 -6.575 6.51 -7 6 C-5.52522876 2.59668175 -4.14385429 0 0 0 Z " fill="#867886" transform="translate(68,26)"/>
<path d="M0 0 C0.66 0.33 1.32 0.66 2 1 C2.125 6.75 2.125 6.75 1 9 C0.34 9 -0.32 9 -1 9 C-1.33 8.01 -1.66 7.02 -2 6 C-2.99 5.67 -3.98 5.34 -5 5 C-5 3.68 -5 2.36 -5 1 C-3.68 1 -2.36 1 -1 1 C-0.67 0.67 -0.34 0.34 0 0 Z " fill="#887A88" transform="translate(40,20)"/>
<path d="M0 0 C1.32 0.99 2.64 1.98 4 3 C4.25 6.6875 4.25 6.6875 4 10 C2.68 10 1.36 10 0 10 C0 6.7 0 3.4 0 0 Z " fill="#E2D16E" transform="translate(32,61)"/>
<path d="M0 0 C5.84615385 4.30769231 5.84615385 4.30769231 7 8 C6.70865843 9.34313401 6.37974823 10.67913658 6 12 C4.8001722 10.57277341 3.6154424 9.13284224 2.4375 7.6875 C1.77621094 6.88699219 1.11492188 6.08648437 0.43359375 5.26171875 C-0.27603516 4.14216797 -0.27603516 4.14216797 -1 3 C-0.67 2.01 -0.34 1.02 0 0 Z " fill="#86C7E5" transform="translate(59,34)"/>
<path d="M0 0 C2.56616632 3.84924948 2.55097676 6.4349304 3 11 C2.01 11.33 1.02 11.66 0 12 C0 8 0 4 0 0 Z M-3 1 C-2.34 1.99 -1.68 2.98 -1 4 C-1.99 4.66 -2.98 5.32 -4 6 C-4.33 5.01 -4.66 4.02 -5 3 C-4.34 3 -3.68 3 -3 3 C-3 2.34 -3 1.68 -3 1 Z " fill="#776B77" transform="translate(41,17)"/>
<path d="M0 0 C0.70125 0.268125 1.4025 0.53625 2.125 0.8125 C-2.375 3.8125 -2.375 3.8125 -6.875 6.8125 C-7.535 6.1525 -8.195 5.4925 -8.875 4.8125 C-3.58269231 -0.23365385 -3.58269231 -0.23365385 0 0 Z " fill="#89C7E0" transform="translate(42.875,32.1875)"/>
<path d="M0 0 C0.99 0.33 1.98 0.66 3 1 C3 2.98 3 4.96 3 7 C1.68 7 0.36 7 -1 7 C-1.04254356 5.00045254 -1.04080783 2.99958364 -1 1 C-0.67 0.67 -0.34 0.34 0 0 Z " fill="#000000" transform="translate(27,28)"/>
<path d="M0 0 C2.475 0.495 2.475 0.495 5 1 C5.33 2.32 5.66 3.64 6 5 C4.35 4.67 2.7 4.34 1 4 C0.67 2.68 0.34 1.36 0 0 Z " fill="#000000" transform="translate(5,41)"/>
<path d="M0 0 C1.32 0.33 2.64 0.66 4 1 C4.33 2.65 4.66 4.3 5 6 C3.68 5.67 2.36 5.34 1 5 C0.67 3.35 0.34 1.7 0 0 Z " fill="#000000" transform="translate(14,32)"/>
<path d="M0 0 C0.99 0.33 1.98 0.66 3 1 C3 2.98 3 4.96 3 7 C2.01 7 1.02 7 0 7 C0 4.69 0 2.38 0 0 Z " fill="#D5CA70" transform="translate(15,49)"/>
<path d="M0 0 C1.65 0 3.3 0 5 0 C5 0.99 5 1.98 5 3 C2.69 3.33 0.38 3.66 -2 4 C-1.34 2.68 -0.68 1.36 0 0 Z " fill="#0D0D0E" transform="translate(51,12)"/>
</svg>
