<?xml version="1.0" encoding="UTF-8"?>
<svg version="1.1" xmlns="http://www.w3.org/2000/svg" width="90" height="89">
<path d="M0 0 C3.3 0 6.6 0 10 0 C10.495 2.475 10.495 2.475 11 5 C15.27373954 5.93697124 15.27373954 5.93697124 19.5 5.1875 C22 5 22 5 23.6796875 6.0546875 C25.42697261 7.60872449 26.76291146 9.01356392 28 11 C27.8125 14.0625 27.8125 14.0625 27 17 C27.36858988 19.76864953 27.36858988 19.76864953 28 22 C29.32 22.33 30.64 22.66 32 23 C32 26.63 32 30.26 32 34 C30.02 34.495 30.02 34.495 28 35 C27.15901344 39.01804691 26.94595055 42.01803543 28 46 C20.91817683 52.06260297 20.91817683 52.06260297 17.25 51.8125 C16.5075 51.544375 15.765 51.27625 15 51 C12.8064655 50.9853761 12.8064655 50.9853761 11 52 C9.70339566 54.49034386 9.70339566 54.49034386 9 57 C6.03 57 3.06 57 0 57 C-0.66 55.35 -1.32 53.7 -2 52 C-7.05009595 51.06213918 -7.05009595 51.06213918 -12 52 C-14.85370641 50.51319498 -17.05970584 48.56140815 -19 46 C-18.8125 42.375 -18.8125 42.375 -18 39 C-18.54217768 36.66335851 -18.54217768 36.66335851 -20 35 C-21.32 34.34 -22.64 33.68 -24 33 C-24 29.7 -24 26.4 -24 23 C-22.35 22.67 -20.7 22.34 -19 22 C-18.05812473 17.46228371 -18.05812473 17.46228371 -18.6328125 12.97265625 C-19 11 -19 11 -17.99609375 9.26171875 C-16.39158539 7.6411251 -14.92133694 6.23514517 -13 5 C-9.9375 5.1875 -9.9375 5.1875 -7 6 C-4.27566639 6.02302257 -4.27566639 6.02302257 -2 5 C-0.62533375 2.52363988 -0.62533375 2.52363988 0 0 Z " fill="#F2E077" transform="translate(52,1)"/>
<path d="M0 0 C1.10859375 0.32742187 2.2171875 0.65484375 3.359375 0.9921875 C6.13435951 2.07968143 7.48055602 2.77753765 9.25 5.125 C9.745 6.61 9.745 6.61 10.25 8.125 C11.15363281 7.55910156 12.05726562 6.99320313 12.98828125 6.41015625 C14.17958635 5.6691082 15.37099819 4.92823173 16.5625 4.1875 C17.45485352 3.62772461 17.45485352 3.62772461 18.36523438 3.05664062 C23.4889717 -0.120649 27.15248889 -1.52830476 33.25 -0.875 C35.3125 1.3125 35.3125 1.3125 36.25 4.125 C35.42632301 7.74917877 34.41210416 8.99906971 31.44921875 11.30078125 C30.28751208 12.02739242 29.11628314 12.73893254 27.9375 13.4375 C27.31665527 13.81704834 26.69581055 14.19659668 26.05615234 14.58764648 C24.76424078 15.37729347 23.46960032 16.16249196 22.17236328 16.94335938 C20.32096612 18.08137846 18.51613876 19.26897008 16.71484375 20.484375 C16.1525708 20.85522217 15.59029785 21.22606934 15.01098633 21.6081543 C13.46367961 22.62899343 11.92303033 23.65990266 10.3828125 24.69140625 C3.79534946 27.70586876 -2.56807874 25.95634138 -9.25 24.125 C-10.34054688 23.83882812 -10.34054688 23.83882812 -11.453125 23.546875 C-13.22106531 23.08162755 -14.98588933 22.60456407 -16.75 22.125 C-16.70488281 22.90230469 -16.65976562 23.67960937 -16.61328125 24.48046875 C-16.75 27.125 -16.75 27.125 -18.9375 29.4375 C-22.06127844 31.31176706 -23.20039116 31.79189621 -26.75 31.125 C-28.84765625 28.52734375 -28.84765625 28.52734375 -30.8125 25.0625 C-31.15539062 24.46630859 -31.49828125 23.87011719 -31.8515625 23.25585938 C-32.82893381 21.551963 -33.7899259 19.83870221 -34.75 18.125 C-35.58270775 16.79127588 -36.41586634 15.45783279 -37.25 14.125 C-39.56818182 9.48863636 -39.56818182 9.48863636 -38.75 6.125 C-36.5625 3.75 -36.5625 3.75 -33.75 2.125 C-30.97712751 2.31845622 -29.21914446 2.89042777 -26.75 4.125 C-23.48623618 2.40867105 -20.36122263 0.50315573 -17.20703125 -1.40625 C-11.24125174 -3.94086367 -5.98243983 -1.81158389 0 0 Z " fill="#090908" transform="translate(44.75,56.875)"/>
<path d="M0 0 C4.68904401 2.64196136 8.09298976 5.89003608 9.65625 11.1171875 C10.40330628 16.46330904 10.36734647 20.66865765 7.96875 25.5546875 C3.12939483 30.9172162 -0.96861231 33.79056127 -8.21875 34.4921875 C-13.44713467 34.33464672 -17.17462628 32.26389134 -20.85546875 28.62109375 C-25.02394616 23.83152515 -25.76443393 19.90674207 -25.68359375 13.75390625 C-25.03020014 8.68447306 -22.54991479 5.14571305 -18.83984375 1.734375 C-13.33073495 -2.06226383 -6.17159607 -2.32463452 0 0 Z " fill="#E9ECED" transform="translate(64.34375,12.8828125)"/>
<path d="M0 0 C0.90621094 0.20367187 1.81242187 0.40734375 2.74609375 0.6171875 C7.89091115 1.91616267 7.89091115 1.91616267 10 3 C10.78125 5.10546875 10.78125 5.10546875 11 7 C2.42857143 7.14285714 2.42857143 7.14285714 -1 6 C-1.33 6.66 -1.66 7.32 -2 8 C-0.66961551 8.3449145 0.66457061 8.67516582 2 9 C2.7425 9.185625 3.485 9.37125 4.25 9.5625 C12.63897231 10.89710923 16.72443701 9.60470653 23.6875 5 C32.4685529 -0.71502124 32.4685529 -0.71502124 37 0 C37.495 1.98 37.495 1.98 38 4 C32.05478626 8.31599651 25.96981506 12.43124324 19.8125 16.4375 C19.14798828 16.88657715 18.48347656 17.3356543 17.79882812 17.79833984 C13.37039163 20.63592539 10.39621532 21.64095318 5 21 C2.62492898 20.41213712 0.26855419 19.74345914 -2.0625 19 C-6.56904272 17.5658737 -10.26210214 16.76923481 -15 17 C-15.84114171 15.56705502 -16.67265687 14.12845595 -17.5 12.6875 C-17.9640625 11.88699219 -18.428125 11.08648437 -18.90625 10.26171875 C-20 8 -20 8 -20 5 C-13.01621583 0.49643825 -8.20283919 -2.22306791 0 0 Z " fill="#F0DCCE" transform="translate(39,59)"/>
<path d="M0 0 C3.3 0 6.6 0 10 0 C10.495 2.475 10.495 2.475 11 5 C15.27373954 5.93697124 15.27373954 5.93697124 19.5 5.1875 C22 5 22 5 23.6796875 6.0546875 C25.42697261 7.60872449 26.76291146 9.01356392 28 11 C27.8125 14.0625 27.8125 14.0625 27 17 C27.36858988 19.76864953 27.36858988 19.76864953 28 22 C29.32 22.33 30.64 22.66 32 23 C32 26.63 32 30.26 32 34 C30.02 34.495 30.02 34.495 28 35 C27.15901344 39.01804691 26.94595055 42.01803543 28 46 C20.91817683 52.06260297 20.91817683 52.06260297 17.25 51.8125 C16.5075 51.544375 15.765 51.27625 15 51 C12.8064655 50.9853761 12.8064655 50.9853761 11 52 C9.70339566 54.49034386 9.70339566 54.49034386 9 57 C6.03 57 3.06 57 0 57 C-0.66 55.35 -1.32 53.7 -2 52 C-7.05009595 51.06213918 -7.05009595 51.06213918 -12 52 C-14.85370641 50.51319498 -17.05970584 48.56140815 -19 46 C-18.8125 42.375 -18.8125 42.375 -18 39 C-18.54217768 36.66335851 -18.54217768 36.66335851 -20 35 C-21.32 34.34 -22.64 33.68 -24 33 C-24 29.7 -24 26.4 -24 23 C-22.35 22.67 -20.7 22.34 -19 22 C-18.05812473 17.46228371 -18.05812473 17.46228371 -18.6328125 12.97265625 C-19 11 -19 11 -17.99609375 9.26171875 C-16.39158539 7.6411251 -14.92133694 6.23514517 -13 5 C-9.9375 5.1875 -9.9375 5.1875 -7 6 C-4.27566639 6.02302257 -4.27566639 6.02302257 -2 5 C-0.62533375 2.52363988 -0.62533375 2.52363988 0 0 Z M2 3 C1.67 4.32 1.34 5.64 1 7 C-2.66114293 8.17156574 -5.38868928 9.01175598 -9.25 8.9375 C-11.96023037 8.78213877 -11.96023037 8.78213877 -13.875 10.0625 C-15.57930541 12.99769266 -15.11523033 15.65832029 -15 19 C-15.1875 21.8125 -15.1875 21.8125 -16 24 C-18.5625 25.3125 -18.5625 25.3125 -21 26 C-21 27.65 -21 29.3 -21 31 C-20.38125 31.226875 -19.7625 31.45375 -19.125 31.6875 C-16.26335417 33.45498713 -15.86129517 34.77014312 -15 38 C-15.020625 39.19625 -15.04125 40.3925 -15.0625 41.625 C-15.26873805 44.8920383 -15.26873805 44.8920383 -13.875 47 C-11.92861117 48.28603793 -11.92861117 48.28603793 -9.1875 47.5 C-5.12100239 46.86211802 -3.42338165 47.82148441 0 50 C0.66 50.99 1.32 51.98 2 53 C4.5 53.5 4.5 53.5 7 53 C7.66 52.01 8.32 51.02 9 50 C13.568625 47.09269318 15.80832529 47.07703561 21 48 C23.03882095 47.12870693 23.03882095 47.12870693 24 45 C24.04320247 42.66706666 24.04022391 40.3329866 24 38 C24.86129517 34.77014312 25.26335417 33.45498713 28.125 31.6875 C28.74375 31.460625 29.3625 31.23375 30 31 C30 29.35 30 27.7 30 26 C29.071875 25.690625 29.071875 25.690625 28.125 25.375 C25.06796686 23.39691973 24.80562664 21.49104876 24 18 C24.020625 16.948125 24.04125 15.89625 24.0625 14.8125 C24.27303703 12.03521842 24.27303703 12.03521842 22.77734375 10.36328125 C20.59131606 8.68652595 19.22818065 8.54778477 16.5 8.375 C13.69797885 8.17885852 11.70125455 7.90041818 9 7 C7.8125 4.9375 7.8125 4.9375 7 3 C5.35 3 3.7 3 2 3 Z " fill="#090804" transform="translate(52,1)"/>
<path d="M0 0 C4.68904401 2.64196136 8.09298976 5.89003608 9.65625 11.1171875 C10.40330628 16.46330904 10.36734647 20.66865765 7.96875 25.5546875 C3.12939483 30.9172162 -0.96861231 33.79056127 -8.21875 34.4921875 C-13.44713467 34.33464672 -17.17462628 32.26389134 -20.85546875 28.62109375 C-25.02394616 23.83152515 -25.76443393 19.90674207 -25.68359375 13.75390625 C-25.03020014 8.68447306 -22.54991479 5.14571305 -18.83984375 1.734375 C-13.33073495 -2.06226383 -6.17159607 -2.32463452 0 0 Z M-21.21875 8.3046875 C-23.28890564 13.48007659 -23.02206592 18.2250431 -21.15625 23.4296875 C-18.7855281 26.94489584 -16.13094238 29.22359131 -12.34375 31.1171875 C-6.73647183 31.49100604 -3.17602462 31.30209577 1.65625 28.1171875 C6.05146972 23.24680889 7.06379905 20.17825299 7.0078125 13.73046875 C6.46215972 9.67444978 4.63431269 6.875814 1.65625 4.1171875 C-6.20898413 -0.86970563 -15.46613391 1.59330207 -21.21875 8.3046875 Z " fill="#14120E" transform="translate(64.34375,12.8828125)"/>
<path d="M0 0 C0.33 0 0.66 0 1 0 C1.42034404 6.09498863 1.07814737 9.12887953 -3 14 C-7.00286685 17.51767087 -10.59495797 18.3539022 -15.9375 18.28515625 C-20.15863164 17.70155282 -22.89975078 15.10024922 -25.8125 12.1875 C-27.43442058 9.19975157 -27.67743221 6.35470499 -28 3 C-27.01 2.67 -26.02 2.34 -25 2 C-24.5875 2.7425 -24.175 3.485 -23.75 4.25 C-21.99128992 7.01368727 -20.63352269 9.04366886 -18 11 C-14.82200804 11.13817356 -12.91484738 10.77819929 -10.45703125 8.6875 C-9.43850749 7.6401748 -8.43713283 6.57591287 -7.453125 5.49609375 C-5.54589976 3.53247207 -3.39371577 2.2994457 -1 1 C-0.67 0.67 -0.34 0.34 0 0 Z " fill="#EEF0F1" transform="translate(70,26)"/>
<path d="M0 0 C1.0209375 0.2165625 1.0209375 0.2165625 2.0625 0.4375 C2.6875 2.75 2.6875 2.75 3.0625 5.4375 C2.0725 6.9225 2.0725 6.9225 1.0625 8.4375 C0.4025 8.4375 -0.2575 8.4375 -0.9375 8.4375 C-1.246875 9.2728125 -1.246875 9.2728125 -1.5625 10.125 C-3.51889204 13.4152957 -5.79491004 15.28082061 -8.9375 17.4375 C-11.93304237 17.66216568 -13.23775648 16.95661205 -15.6171875 15.19140625 C-17.30634262 13.69296219 -18.68019469 12.31447721 -19.9375 10.4375 C-19.8125 7.5625 -19.8125 7.5625 -18.9375 5.4375 C-16.6875 4.75 -16.6875 4.75 -13.9375 4.4375 C-11.625 5.875 -11.625 5.875 -9.9375 7.4375 C-9.26654297 6.67953125 -9.26654297 6.67953125 -8.58203125 5.90625 C-3.58243997 0.53355489 -3.58243997 0.53355489 0 0 Z " fill="#1A1D20" transform="translate(64.9375,20.5625)"/>
<path d="M0 0 C2.53593252 0.97517048 3.09249848 1.89449777 4.41918945 4.2355957 C4.81686523 4.93620117 5.21454102 5.63680664 5.62426758 6.35864258 C6.02452148 7.0953418 6.42477539 7.83204102 6.8371582 8.59106445 C7.46654297 9.67871094 7.46654297 9.67871094 8.10864258 10.78833008 C11.12299835 16.21615686 11.12299835 16.21615686 10.6328125 19.01953125 C10.43212158 19.60001221 10.23143066 20.18049316 10.0246582 20.77856445 C8.7046582 20.77856445 7.3846582 20.77856445 6.0246582 20.77856445 C4.65258789 19.265625 4.65258789 19.265625 3.4465332 17.1652832 C2.78911133 16.03509766 2.78911133 16.03509766 2.1184082 14.88208008 C1.45325195 13.68615234 1.45325195 13.68615234 0.7746582 12.46606445 C0.31575195 11.68038086 -0.1431543 10.89469727 -0.6159668 10.08520508 C-3.9753418 4.2112979 -3.9753418 4.2112979 -3.9753418 0.77856445 C-1.9753418 -0.22143555 -1.9753418 -0.22143555 0 0 Z " fill="#D8D8DD" transform="translate(12.975341796875,63.221435546875)"/>
<path d="M0 0 C0 0.66 0 1.32 0 2 C-0.97582031 2.53109375 -1.95164062 3.0621875 -2.95703125 3.609375 C-4.24244561 4.32245158 -5.52758768 5.03601917 -6.8125 5.75 C-7.45509766 6.09804687 -8.09769531 6.44609375 -8.75976562 6.8046875 C-12.29578499 8.78339263 -14.88181751 10.50381775 -17 14 C-20 8.375 -20 8.375 -20 5 C-12.88225432 0.41005185 -8.41369473 -1.9310119 0 0 Z " fill="#EECDBE" transform="translate(39,59)"/>
<path d="M0 0 C1.03125 0.33 2.0625 0.66 3.125 1 C5.75313121 1.77141503 7.43764701 1.99158371 10.25 1.9375 C13 2 13 2 14.875 3.5 C15.24625 3.995 15.6175 4.49 16 5 C15.34 6.65 14.68 8.3 14 10 C10.23988592 9.41017818 7.39843196 8.31289194 4.0625 6.5 C0.35319139 4.57603873 -2.77684494 3.33340698 -7 3 C-7 2.67 -7 2.34 -7 2 C-4.69 2 -2.38 2 0 2 C0 1.34 0 0.68 0 0 Z " fill="#FDEB7C" transform="translate(60,8)"/>
<path d="M0 0 C0 0.33 0 0.66 0 1 C-0.59167969 1.03738281 -1.18335937 1.07476562 -1.79296875 1.11328125 C-6.54423746 1.50857441 -10.19958423 1.87024584 -14 5 C-16.95797979 8.80311687 -17.53498083 12.25680447 -18 17 C-18.99 16.34 -19.98 15.68 -21 15 C-20.5128221 8.91027629 -19.16172215 4.80038247 -14.49609375 0.66796875 C-9.48104594 -2.81114794 -5.56500647 -1.86762122 0 0 Z " fill="#15130E" transform="translate(60,14)"/>
<path d="M0 0 C1.051875 0.185625 1.051875 0.185625 2.125 0.375 C1.795 1.695 1.465 3.015 1.125 4.375 C0.526875 4.47554687 -0.07125 4.57609375 -0.6875 4.6796875 C-3.84513243 5.68336352 -5.21741174 7.72447471 -7.3125 10.1953125 C-8.875 11.375 -8.875 11.375 -10.9921875 11.1796875 C-13.49955901 10.10807229 -13.80846893 8.81278531 -14.875 6.375 C-15.535 6.045 -16.195 5.715 -16.875 5.375 C-15.7303125 5.6225 -15.7303125 5.6225 -14.5625 5.875 C-11.83903764 6.46645396 -11.83903764 6.46645396 -8.875 6.375 C-7.38293925 5.05774504 -7.38293925 5.05774504 -6 3.375 C-3.22609909 0.42079553 -3.22609909 0.42079553 0 0 Z " fill="#0E141A" transform="translate(64.875,20.625)"/>
<path d="M0 0 C1.66611905 -0.042721 3.33382885 -0.04063832 5 0 C6 1 6 1 6.125 3.4375 C6 6 6 6 5 8 C2.69 8 0.38 8 -2 8 C-2 7.34 -2 6.68 -2 6 C-3.32 5.67 -4.64 5.34 -6 5 C-4.35 4.67 -2.7 4.34 -1 4 C-0.67 2.68 -0.34 1.36 0 0 Z " fill="#EBD772" transform="translate(54,4)"/>
<path d="M0 0 C1.75 0.125 1.75 0.125 4 1 C6.25 4.0625 6.25 4.0625 8 7 C6.84826645 9.46800047 5.95216435 11.04783565 4 13 C3.01 12.67 2.02 12.34 1 12 C1.66 12 2.32 12 3 12 C3.33 9.69 3.66 7.38 4 5 C2.35 4.67 0.7 4.34 -1 4 C-0.67 2.68 -0.34 1.36 0 0 Z " fill="#DADADB" transform="translate(63,17)"/>
<path d="M0 0 C0.66 0.33 1.32 0.66 2 1 C1.43410156 1.55429687 0.86820313 2.10859375 0.28515625 2.6796875 C-0.44832031 3.40414063 -1.18179688 4.12859375 -1.9375 4.875 C-2.66839844 5.59429688 -3.39929688 6.31359375 -4.15234375 7.0546875 C-6.05667999 8.87027192 -6.05667999 8.87027192 -7 11 C-10.78611227 10.45912682 -12.55400767 8.88277668 -15 6 C-15 5.34 -15 4.68 -15 4 C-14.13375 4.4640625 -14.13375 4.4640625 -13.25 4.9375 C-10.23511407 6.36405032 -10.23511407 6.36405032 -7 7 C-4.98507432 5.5913183 -4.98507432 5.5913183 -3.25 3.5625 C-2.63640625 2.90378906 -2.0228125 2.24507812 -1.390625 1.56640625 C-0.93171875 1.04949219 -0.4728125 0.53257813 0 0 Z " fill="#9FE5F2" transform="translate(63,24)"/>
<path d="M0 0 C3.3 0.99 6.6 1.98 10 3 C8.68 4.32 7.36 5.64 6 7 C4.453125 6.2884375 4.453125 6.2884375 2.875 5.5625 C-0.38534162 4.15477612 -3.46051083 3.43164502 -7 3 C-7 2.67 -7 2.34 -7 2 C-4.69 2 -2.38 2 0 2 C0 1.34 0 0.68 0 0 Z " fill="#E9DA74" transform="translate(60,8)"/>
<path d="M0 0 C2.8203125 -0.29296875 2.8203125 -0.29296875 6.125 -0.1875 C7.76855469 -0.14689453 7.76855469 -0.14689453 9.4453125 -0.10546875 C10.28835937 -0.07066406 11.13140625 -0.03585937 12 0 C11.67 0.99 11.34 1.98 11 3 C6.38926889 4.29676812 2.66159911 3.71109139 -2 3 C-1.34 2.01 -0.68 1.02 0 0 Z " fill="#F4E87C" transform="translate(40,10)"/>
<path d="M0 0 C1.95418308 2.93127462 2.64700993 4.55834679 3 8 C2.34 8.66 1.68 9.32 1 10 C1 9.34 1 8.68 1 8 C0.34 8 -0.32 8 -1 8 C-1.66 6.02 -2.32 4.04 -3 2 C-2.01 2 -1.02 2 0 2 C0 1.34 0 0.68 0 0 Z " fill="#E8D46F" transform="translate(74,16)"/>
<path d="M0 0 C-0.33 1.65 -0.66 3.3 -1 5 C-1.99 5.33 -2.98 5.66 -4 6 C-6 3 -6 3 -6 0 C-3.50907189 -1.24546405 -2.58919267 -0.7767578 0 0 Z " fill="#9D9DA0" transform="translate(15,64)"/>
<path d="M0 0 C5.94 0.99 5.94 0.99 12 2 C12 2.33 12 2.66 12 3 C10.35 3 8.7 3 7 3 C6.67 3.66 6.34 4.32 6 5 C3.69 4.34 1.38 3.68 -1 3 C-0.67 2.01 -0.34 1.02 0 0 Z " fill="#34302C" transform="translate(38,64)"/>
<path d="M0 0 C1.22589844 0.29197266 1.22589844 0.29197266 2.4765625 0.58984375 C3.41628906 0.82380859 3.41628906 0.82380859 4.375 1.0625 C4.375 1.3925 4.375 1.7225 4.375 2.0625 C3.45267578 2.15337891 3.45267578 2.15337891 2.51171875 2.24609375 C1.70347656 2.32988281 0.89523438 2.41367188 0.0625 2.5 C-0.73800781 2.58121094 -1.53851563 2.66242187 -2.36328125 2.74609375 C-4.78587179 3.01515693 -4.78587179 3.01515693 -7.625 4.0625 C-7.25 2.125 -7.25 2.125 -6.625 0.0625 C-3.99249612 -1.25375194 -2.82320944 -0.68563658 0 0 Z " fill="#30302C" transform="translate(55.625,12.9375)"/>
<path d="M0 0 C1.65 0 3.3 0 5 0 C5.33 1.32 5.66 2.64 6 4 C4.35 4 2.7 4 1 4 C0.67 2.68 0.34 1.36 0 0 Z " fill="#FAEEE1" transform="translate(44,62)"/>
<path d="M0 0 C1.65 0 3.3 0 5 0 C4.67 1.65 4.34 3.3 4 5 C2.35 4.67 0.7 4.34 -1 4 C-0.67 2.68 -0.34 1.36 0 0 Z " fill="#E6D5C7" transform="translate(41,61)"/>
<path d="M0 0 C1.32 0.33 2.64 0.66 4 1 C3.67 1.99 3.34 2.98 3 4 C-0.3 3.67 -3.6 3.34 -7 3 C-7 2.67 -7 2.34 -7 2 C-4.69 2 -2.38 2 0 2 C0 1.34 0 0.68 0 0 Z " fill="#FCF281" transform="translate(60,8)"/>
<path d="M0 0 C0.99 0 1.98 0 3 0 C2.67 1.98 2.34 3.96 2 6 C1.01 5.67 0.02 5.34 -1 5 C-1 5.66 -1 6.32 -1 7 C-1.66 6.67 -2.32 6.34 -3 6 C-2.01 4.02 -1.02 2.04 0 0 Z " fill="#FBED7E" transform="translate(74,33)"/>
<path d="M0 0 C0.99 0.33 1.98 0.66 3 1 C1.84826645 3.46800047 0.95216435 5.04783565 -1 7 C-1.99 6.67 -2.98 6.34 -4 6 C-3.34 6 -2.68 6 -2 6 C-1.34 4.02 -0.68 2.04 0 0 Z " fill="#DFE1E2" transform="translate(68,23)"/>
<path d="M0 0 C0.99 0.33 1.98 0.66 3 1 C2 2.5 2 2.5 0 4 C-2.71846235 4.27345479 -5.25677199 4.13491285 -8 4 C-8 3.67 -8 3.34 -8 3 C-6.865625 2.690625 -5.73125 2.38125 -4.5625 2.0625 C-1.21224901 1.37075469 -1.21224901 1.37075469 0 0 Z " fill="#2B281A" transform="translate(60,43)"/>
<path d="M0 0 C0.66 0 1.32 0 2 0 C0.60667426 3.36720387 -0.9789286 4.9859524 -4 7 C-4.33 6.01 -4.66 5.02 -5 4 C-4.01 4 -3.02 4 -2 4 C-2 3.34 -2 2.68 -2 2 C-1.34 2 -0.68 2 0 2 C0 1.34 0 0.68 0 0 Z " fill="#CFD0D0" transform="translate(58,22)"/>
<path d="M0 0 C0 2.64 0 5.28 0 8 C-0.99 7.34 -1.98 6.68 -3 6 C-3.1875 3.375 -3.1875 3.375 -3 1 C-1 0 -1 0 0 0 Z " fill="#1F1D16" transform="translate(42,23)"/>
</svg>
