<?xml version="1.0" standalone="no"?>
<!DOCTYPE svg PUBLIC "-//W3C//DTD SVG 20010904//EN"
 "http://www.w3.org/TR/2001/REC-SVG-20010904/DTD/svg10.dtd">
<svg version="1.0" xmlns="http://www.w3.org/2000/svg"
 width="1024.000000pt" height="1024.000000pt" viewBox="0 0 1024.000000 1024.000000"
 preserveAspectRatio="xMidYMid meet">
<metadata>
Created by potrace 1.16, written by Peter Selinger 2001-2019
</metadata>
<g transform="translate(0.000000,1024.000000) scale(0.100000,-0.100000)"
fill="#00c711ff" stroke="none">
<path d="M3355 8371 c-72 -18 -177 -65 -230 -102 -31 -21 -61 -37 -66 -33 -5
3 -8 1 -7 -3 2 -5 -32 -40 -76 -76 -43 -37 -121 -107 -173 -155 -53 -48 -100
-86 -105 -84 -5 1 -7 -1 -4 -6 7 -12 -38 -54 -48 -45 -4 5 -6 3 -4 -3 2 -5
-45 -65 -103 -132 -172 -197 -275 -359 -343 -544 -85 -231 -89 -535 -11 -887
72 -323 250 -771 447 -1125 34 -61 61 -116 61 -123 0 -7 3 -10 6 -8 4 2 33
-42 66 -97 33 -56 97 -157 142 -226 46 -68 80 -129 76 -135 -3 -5 -1 -7 4 -4
14 9 46 -40 37 -55 -4 -7 -3 -8 4 -4 17 10 34 -28 19 -44 -10 -12 -9 -12 5 -1
14 10 18 9 27 -7 6 -11 7 -23 3 -27 -4 -5 -2 -5 4 -2 12 7 91 -101 86 -118 -2
-5 0 -7 3 -3 10 9 46 -37 43 -53 -2 -7 2 -13 8 -14 6 0 55 -54 109 -120 54
-66 113 -138 131 -159 19 -21 31 -43 27 -49 -3 -6 -1 -7 5 -3 13 8 54 -43 45
-57 -3 -5 -1 -7 4 -4 6 4 28 -12 48 -36 21 -23 65 -70 97 -104 36 -38 57 -67
52 -74 -4 -7 -3 -9 3 -6 11 7 240 -219 236 -233 -1 -4 5 -7 15 -6 9 0 16 -5
15 -11 -2 -7 0 -12 5 -10 14 4 112 -85 105 -97 -3 -6 -2 -8 2 -3 11 10 46 -23
38 -36 -3 -6 -1 -7 5 -3 11 7 85 -51 78 -63 -2 -3 0 -15 5 -26 6 -17 8 -17 8
-2 1 9 5 17 9 17 15 0 62 -56 55 -65 -5 -4 -2 -5 4 -1 8 4 44 -18 90 -56 43
-35 99 -80 125 -100 26 -19 45 -38 43 -42 -3 -3 -2 -4 1 -1 10 7 65 -35 59
-45 -3 -5 0 -12 6 -16 8 -4 9 -3 5 4 -12 20 3 13 54 -25 34 -25 46 -39 37 -45
-9 -6 -8 -8 3 -9 8 -1 18 -1 22 0 4 0 45 -25 90 -56 419 -286 918 -525 1332
-637 160 -44 260 -58 401 -58 186 -1 354 37 532 117 40 19 73 31 73 27 0 -4 4
-2 8 5 4 6 48 38 97 70 249 164 535 453 733 741 142 207 194 353 172 487 -21
131 -75 213 -203 308 -138 103 -303 224 -404 299 -57 41 -99 78 -95 82 4 4 2
6 -4 4 -18 -5 -165 102 -158 114 4 7 2 8 -4 4 -13 -8 -102 49 -102 65 0 6 -4
8 -8 5 -4 -3 -37 15 -73 40 -142 100 -267 154 -353 154 -23 0 -47 4 -55 9 -7
5 -25 5 -40 0 -99 -30 -143 -39 -154 -33 -6 4 -9 4 -5 -1 10 -11 -50 -47 -64
-39 -6 4 -8 3 -4 -4 3 -6 -7 -20 -22 -31 -16 -11 -48 -45 -72 -75 -23 -31 -47
-53 -53 -49 -5 3 -7 1 -4 -4 8 -13 -70 -109 -84 -105 -6 1 -8 -2 -5 -7 7 -11
-222 -287 -235 -283 -6 1 -8 -1 -5 -6 3 -5 -28 -45 -69 -89 -89 -97 -130 -114
-221 -94 -34 8 -52 17 -48 23 4 7 2 8 -4 4 -15 -9 -56 13 -165 86 -53 35 -85
63 -81 70 4 7 3 8 -4 4 -13 -8 -105 63 -242 184 -47 41 -97 86 -112 99 -15 13
-25 28 -21 34 3 6 1 7 -4 4 -14 -9 -175 142 -166 156 3 5 1 7 -5 3 -13 -8 -74
68 -64 79 4 5 2 5 -4 2 -11 -6 -52 29 -53 46 -1 4 -4 7 -8 8 -16 1 -52 42 -46
52 3 6 2 7 -4 4 -12 -8 -189 190 -185 206 2 7 1 9 -3 5 -7 -7 -39 28 -133 143
-34 42 -58 79 -55 83 4 3 1 6 -5 6 -16 0 -103 120 -96 132 4 6 3 8 -4 4 -11
-6 -145 179 -145 201 0 7 -4 10 -8 8 -11 -7 -41 44 -33 57 4 6 3 8 -2 5 -17
-10 -158 215 -224 356 -46 98 -51 155 -20 216 22 43 88 103 103 94 6 -3 7 -2
4 4 -4 6 83 87 192 181 110 94 206 179 215 187 9 9 21 13 27 9 7 -4 9 -3 5 4
-8 13 33 44 47 35 6 -3 7 -2 4 4 -8 13 57 76 67 66 4 -5 6 -1 4 7 -1 8 3 14
10 12 6 -1 11 1 10 5 -1 5 10 28 24 53 53 88 62 126 63 262 0 69 -3 124 -7
122 -4 -3 -8 4 -8 15 0 23 -66 152 -111 218 -17 24 -27 48 -23 55 4 7 3 8 -4
4 -15 -9 -66 69 -56 85 4 7 3 9 -4 5 -14 -8 -111 134 -104 153 3 8 0 11 -6 7
-14 -9 -166 219 -156 235 4 8 3 9 -4 5 -8 -5 -40 35 -88 110 -60 92 -73 118
-63 126 11 8 10 9 -3 5 -19 -7 -63 57 -52 75 4 6 2 8 -3 5 -6 -4 -23 11 -38
33 -15 22 -46 57 -69 77 -23 21 -40 41 -39 45 2 5 0 7 -5 6 -4 -1 -34 11 -67
27 -51 26 -72 30 -155 32 -52 1 -109 -1 -125 -6z"/>
</g>
</svg>
