<?xml version="1.0" standalone="no"?>
<!DOCTYPE svg PUBLIC "-//W3C//DTD SVG 20010904//EN"
 "http://www.w3.org/TR/2001/REC-SVG-20010904/DTD/svg10.dtd">
<svg version="1.0" xmlns="http://www.w3.org/2000/svg"
 width="1024.000000pt" height="1024.000000pt" viewBox="0 0 1024.000000 1024.000000"
 preserveAspectRatio="xMidYMid meet">
<metadata>
Created by potrace 1.16, written by Peter Selinger 2001-2019
</metadata>
<g transform="translate(0.000000,1024.000000) scale(0.100000,-0.100000)"
fill="#00c711ff" stroke="none" fill-rule="evenodd">
<path d="M4905 9449 c-859 -36 -1725 -350 -2384 -863 -521 -405 -946 -917
-1228 -1480 -246 -489 -392 -999 -444 -1551 -19 -196 -16 -667 5 -855 69 -616
231 -1127 522 -1648 559 -997 1465 -1711 2582 -2036 586 -170 1244 -210 1857
-112 227 37 527 114 744 193 578 209 1163 582 1594 1017 222 223 383 420 554
676 154 230 250 409 367 683 187 439 285 849 321 1347 66 886 -123 1719 -567
2499 -358 629 -910 1186 -1538 1553 -489 286 -1053 477 -1615 548 -148 18
-500 42 -570 38 -16 0 -106 -4 -200 -9z m695 -33 c492 -61 869 -164 1275 -346
374 -169 675 -357 989 -618 111 -92 431 -411 509 -507 166 -203 391 -520 414
-582 4 -10 22 -41 40 -70 28 -44 172 -329 211 -419 303 -691 413 -1452 327
-2244 -61 -551 -245 -1116 -520 -1596 -290 -504 -707 -974 -1165 -1314 -345
-255 -768 -486 -1100 -602 -534 -185 -936 -254 -1480 -253 -461 1 -908 79
-1375 238 -179 62 -287 107 -500 212 -313 154 -590 334 -870 566 -130 108
-409 388 -507 509 -160 198 -183 229 -283 380 -387 582 -605 1175 -692 1880
-26 207 -25 790 1 1005 64 536 193 968 434 1453 309 621 832 1215 1416 1610
174 118 243 157 467 272 185 94 322 151 525 220 325 110 722 193 1059 220 155
13 680 3 825 -14z"/>
<path d="M4840 8960 c-660 -52 -1321 -286 -1865 -658 -432 -297 -807 -693
-1088 -1150 -262 -425 -454 -952 -521 -1432 -33 -236 -40 -335 -39 -580 1
-481 72 -879 236 -1330 95 -260 272 -592 448 -840 228 -321 574 -670 899 -905
645 -467 1410 -715 2199 -715 308 0 656 43 941 115 332 84 703 237 990 408
910 542 1570 1446 1785 2442 54 248 70 376 85 655 12 228 7 400 -20 635 -40
359 -129 696 -269 1024 -265 617 -633 1108 -1131 1507 -575 460 -1277 745
-2005 814 -153 14 -519 20 -645 10z m610 -21 c468 -43 894 -159 1299 -355 194
-93 301 -154 471 -267 174 -116 245 -172 410 -317 624 -550 1071 -1349 1214
-2170 48 -277 51 -320 51 -675 -1 -415 -21 -597 -107 -939 -225 -900 -797
-1699 -1598 -2233 -979 -652 -2251 -799 -3370 -390 -799 292 -1519 892 -1961
1634 -262 439 -422 911 -495 1455 -25 184 -30 640 -10 838 71 690 302 1301
706 1870 152 215 402 485 618 669 547 466 1227 766 1967 866 223 31 561 37
805 14z"/>
<path d="M3555 7491 c-46 -28 -67 -57 -128 -171 -122 -231 -128 -246 -121
-274 14 -56 10 -56 479 -56 533 0 617 -8 843 -77 212 -64 372 -155 494 -280
63 -65 118 -136 118 -154 0 -5 -371 -9 -825 -9 -453 0 -835 -4 -847 -9 -54
-21 -79 -56 -187 -262 -69 -132 -80 -161 -75 -188 13 -65 -51 -61 1039 -59
l990 3 -993 5 c-979 5 -994 5 -1009 25 -25 34 -9 82 81 249 100 184 98 181
147 207 37 18 68 19 863 19 460 0 827 4 830 9 10 15 -69 124 -135 187 -122
115 -261 195 -459 264 -81 28 -238 62 -345 74 -16 2 -238 4 -492 5 -449 1
-464 2 -483 21 -11 11 -20 31 -20 44 0 32 154 329 197 382 47 58 -64 54 1705
54 893 0 1628 -4 1635 -8 18 -11 33 -59 26 -79 -8 -22 -111 -212 -165 -305
-62 -108 -32 -102 -538 -108 l-435 -6 420 -2 c452 -2 481 1 524 48 38 40 211
372 211 403 0 14 -10 35 -22 47 -22 20 -25 20 -1657 20 -1579 0 -1637 -1
-1666 -19z"/>
<path d="M5766 6948 c92 -98 174 -246 214 -388 l28 -95 417 -5 c402 -5 417 -6
432 -25 8 -12 13 -32 10 -51 -6 -34 -160 -327 -191 -362 -48 -54 -60 -56 -358
-60 -153 -2 -278 -5 -278 -7 0 -2 -7 -40 -16 -86 -44 -235 -183 -465 -392
-653 -201 -179 -437 -303 -745 -391 -95 -27 -339 -65 -416 -65 -94 0 -90 -9
101 -227 152 -173 322 -370 753 -873 59 -69 135 -157 169 -196 33 -38 81 -94
106 -124 45 -53 343 -403 384 -450 137 -159 166 -199 166 -228 0 -53 -11 -55
-366 -54 -266 1 -329 4 -361 17 -40 16 -124 108 -508 555 -437 509 -604 702
-984 1135 -227 259 -418 482 -426 496 -12 22 -20 187 -16 331 2 59 -8 58 459
58 412 0 431 1 552 24 372 73 625 240 758 501 35 67 76 205 61 205 -5 0 -9 -7
-9 -16 0 -33 -53 -171 -88 -228 -116 -193 -301 -329 -547 -405 -195 -60 -229
-63 -717 -68 l-448 -5 -21 -26 c-20 -25 -21 -36 -17 -188 4 -194 -12 -162 214
-419 523 -596 665 -759 890 -1020 137 -160 303 -353 368 -429 271 -315 421
-482 454 -506 l35 -25 331 0 c182 0 343 3 358 7 35 10 50 54 33 94 -7 16 -48
70 -92 120 -43 50 -123 144 -178 210 -114 135 -511 599 -753 879 -90 105 -255
296 -367 425 -111 129 -237 274 -279 322 l-76 86 77 7 c294 24 585 106 813
227 405 215 678 551 741 913 l11 65 257 0 c275 0 315 5 361 48 39 35 201 336
207 385 5 30 1 43 -17 62 l-23 25 -414 0 c-403 0 -413 0 -413 19 0 38 -52 187
-92 261 -46 87 -141 215 -166 225 -10 4 -4 -7 14 -27z"/>
<path d="M1908 3 c371 -2 974 -2 1340 0 367 1 64 2 -673 2 -737 0 -1037 -1
-667 -2z"/>
<path d="M7308 3 c325 -2 859 -2 1185 0 325 1 59 2 -593 2 -652 0 -918 -1
-592 -2z"/>
</g>
</svg>