<?xml version="1.0" standalone="no"?>
<!DOCTYPE svg PUBLIC "-//W3C//DTD SVG 20010904//EN"
 "http://www.w3.org/TR/2001/REC-SVG-20010904/DTD/svg10.dtd">
<svg version="1.0" xmlns="http://www.w3.org/2000/svg"
 width="1024.000000pt" height="1024.000000pt" viewBox="0 0 1024.000000 1024.000000"
 preserveAspectRatio="xMidYMid meet">
<metadata>
Created by potrace 1.16, written by Peter Selinger 2001-2019
</metadata>
<g transform="translate(0.000000,1024.000000) scale(0.100000,-0.100000)"
fill="#00c711ff" stroke="none">
<path d="M3486 7929 c-115 -17 -253 -61 -366 -116 -63 -32 -124 -56 -135 -55
-13 1 -16 -1 -8 -6 9 -6 -6 -22 -48 -51 -197 -139 -363 -357 -447 -586 -128
-348 -93 -773 89 -1089 37 -64 38 -69 22 -83 -17 -13 -16 -13 3 -4 18 9 26 3
66 -52 26 -34 90 -105 144 -157 92 -89 109 -110 80 -102 -6 2 -7 0 -3 -4 11
-11 38 -14 31 -3 -10 17 7 9 68 -32 126 -86 322 -162 487 -190 102 -17 312
-15 414 5 245 47 470 167 653 347 44 44 84 76 89 72 4 -4 5 -3 2 4 -4 6 3 24
16 40 83 100 170 262 211 393 43 133 57 215 63 355 16 363 -106 681 -359 939
-15 15 -25 33 -21 39 3 6 1 7 -6 3 -7 -4 -32 11 -62 38 -248 223 -650 344
-983 295z"/>
<path d="M6435 7933 c-206 -27 -396 -99 -569 -216 -33 -22 -66 -40 -72 -40 -7
0 -11 -3 -9 -7 7 -11 -78 -75 -95 -73 -9 2 -10 0 -3 -3 8 -4 -9 -30 -49 -75
-216 -241 -322 -524 -321 -859 1 -265 77 -520 217 -723 25 -37 44 -72 41 -78
-4 -5 -11 -7 -16 -4 -5 4 -9 1 -9 -4 0 -14 17 -14 25 -1 3 5 52 -37 108 -93
246 -247 534 -368 877 -370 208 -1 374 35 555 123 299 145 537 409 644 713
101 290 99 626 -6 892 -36 91 -96 203 -141 262 -13 18 -20 37 -16 44 4 7 3 9
-3 6 -6 -4 -34 23 -63 58 -28 36 -81 90 -116 121 -35 31 -61 61 -57 67 3 6 1
7 -5 3 -7 -4 -33 8 -59 26 -26 18 -71 47 -101 64 -29 16 -49 34 -45 39 4 4 3
5 -3 2 -6 -3 -51 11 -100 32 -185 80 -429 117 -609 94z"/>
<path d="M2782 5244 c-110 -18 -306 -83 -422 -140 -428 -207 -770 -596 -913
-1039 -91 -281 -102 -368 -102 -830 l1 -380 27 -90 c37 -119 91 -208 174 -285
37 -35 67 -67 66 -71 -1 -4 3 -6 10 -6 7 1 41 -13 77 -31 36 -17 89 -36 119
-42 35 -6 672 -10 1855 -10 1562 0 1809 2 1859 15 181 47 352 197 417 366 41
107 50 203 50 518 0 505 -42 742 -183 1031 -33 69 -60 136 -59 150 1 21 0 22
-7 6 -6 -15 -9 -16 -13 -5 -3 8 -40 62 -81 121 -41 59 -72 110 -68 113 3 4 1
6 -4 4 -12 -3 -241 223 -237 234 1 5 -2 6 -7 2 -6 -3 -39 16 -73 43 -198 154
-498 282 -768 327 -134 23 -215 16 -347 -29 -237 -82 -356 -101 -572 -93 -174
7 -243 20 -463 92 -151 50 -192 53 -336 29z"/>
<path d="M5718 5240 c-93 -19 -193 -50 -270 -82 l-47 -20 52 -35 c84 -57 210
-167 289 -256 266 -293 428 -625 500 -1022 22 -123 23 -153 23 -560 0 -384 -2
-439 -19 -510 -36 -155 -92 -258 -200 -367 -31 -32 -56 -60 -56 -63 0 -10
2374 -5 2420 6 74 16 201 84 261 138 116 104 181 244 199 428 12 124 11 470
-2 653 -39 566 -300 1044 -757 1385 -211 157 -513 283 -758 316 -118 15 -171
8 -326 -45 -201 -68 -274 -81 -472 -81 -197 0 -254 10 -492 86 -173 55 -208
58 -345 29z"/>
</g>
</svg>
