<?xml version="1.0" standalone="no"?>
<!DOCTYPE svg PUBLIC "-//W3C//DTD SVG 20010904//EN"
 "http://www.w3.org/TR/2001/REC-SVG-20010904/DTD/svg10.dtd">
<svg version="1.0" xmlns="http://www.w3.org/2000/svg"
 width="1536.000000pt" height="1024.000000pt" viewBox="0 0 1536.000000 1024.000000"
 preserveAspectRatio="xMidYMid meet">
<metadata>
Created by potrace 1.16, written by Peter Selinger 2001-2019
</metadata>
<g transform="translate(0.000000,1024.000000) scale(0.100000,-0.100000)"
fill="#00c711ff" stroke="none">
<path d="M2655 8611 c-174 -50 -308 -185 -356 -359 -18 -64 -19 -165 -19
-2665 0 -2878 -5 -2664 64 -2771 44 -68 116 -137 175 -169 96 -53 134 -57 527
-57 l361 0 17 -71 c48 -195 164 -388 328 -545 208 -198 451 -301 740 -311 157
-6 264 9 408 59 220 76 438 244 583 449 62 88 141 256 162 346 l18 73 2021 0
2022 0 12 -60 c16 -75 68 -201 121 -289 321 -540 977 -733 1522 -449 272 141
505 425 589 716 l23 81 301 3 c282 4 305 5 361 26 126 47 240 147 294 258 64
130 61 81 61 1174 l-1 995 -22 65 c-16 46 -60 119 -151 250 -210 300 -350 502
-382 550 -17 25 -84 122 -149 215 -65 94 -181 260 -257 370 -76 110 -156 225
-177 255 -22 30 -119 170 -216 310 -98 140 -209 297 -246 348 -77 103 -156
168 -245 201 -54 21 -70 21 -984 21 l-930 0 0 285 c0 262 -2 291 -21 348 -55
165 -187 298 -347 347 -63 20 -99 20 -3106 19 -2848 0 -3045 -2 -3101 -18z
m6118 -315 c43 -19 92 -68 120 -119 l22 -42 3 -2272 2 -2273 -1781 0 -1781 0
-64 60 c-127 118 -293 210 -474 262 -111 32 -121 33 -300 33 -206 0 -265 -10
-420 -72 -128 -52 -235 -119 -326 -206 l-81 -77 -549 2 -549 3 0 2270 0 2270
22 40 c26 49 65 86 118 113 l40 21 2983 1 c2545 0 2987 -2 3015 -14z m2354
-1039 c23 -34 86 -126 140 -204 54 -78 195 -282 313 -454 118 -172 265 -385
325 -473 61 -89 160 -233 221 -321 60 -88 201 -292 312 -452 112 -161 209
-308 217 -328 12 -28 15 -114 15 -490 l0 -455 -211 0 c-197 0 -214 -1 -245
-21 -40 -24 -84 -94 -84 -133 0 -35 25 -95 53 -124 45 -49 63 -52 282 -52
l205 0 0 -322 c0 -183 -4 -339 -10 -359 -14 -51 -72 -113 -132 -143 -52 -26
-53 -26 -299 -26 l-246 0 -7 60 c-22 193 -106 393 -235 555 -118 150 -243 250
-413 330 -154 72 -257 96 -441 102 -184 7 -268 -4 -407 -52 -178 -60 -314
-146 -450 -284 -52 -53 -98 -95 -103 -93 -5 1 -6 -2 -3 -7 4 -5 -18 -45 -47
-90 -88 -130 -155 -311 -182 -493 l-6 -38 -229 0 -230 0 0 2215 0 2215 928 0
927 0 42 -63z m-6483 -3627 c171 -25 319 -103 456 -240 134 -134 202 -259 236
-438 70 -365 -129 -740 -477 -901 -105 -48 -152 -60 -281 -67 -495 -31 -908
412 -849 909 31 261 157 472 366 614 170 115 340 153 549 123z m6437 -23 c266
-90 459 -288 541 -557 26 -84 36 -303 18 -392 -33 -169 -118 -317 -259 -451
-77 -72 -110 -96 -194 -137 -140 -67 -205 -83 -357 -83 -181 -1 -320 41 -460
137 -213 148 -335 370 -347 631 -11 247 54 427 225 623 91 104 278 216 402
241 30 6 64 13 75 15 11 3 79 4 150 2 107 -3 143 -8 206 -29z m-7602 -369
c-44 -112 -79 -250 -79 -315 l0 -35 -322 4 c-205 3 -333 9 -349 16 -42 17
-101 73 -116 111 -15 36 -30 228 -20 255 6 14 53 16 457 16 l450 0 -21 -52z
m5438 -150 l1 -198 -1622 0 -1623 0 -7 70 c-5 56 -30 153 -83 313 -5 16 77 17
1663 15 l1669 -3 2 -197z"/>
<path d="M6137 7878 c-54 -15 -99 -65 -340 -378 -323 -420 -323 -420 -472
-615 -77 -101 -198 -258 -270 -350 -457 -589 -536 -693 -550 -722 -8 -17 -15
-53 -15 -81 0 -63 30 -109 90 -139 44 -23 49 -23 441 -23 l396 0 -19 -92 c-11
-51 -23 -115 -28 -143 -5 -27 -40 -205 -79 -395 -96 -474 -104 -525 -98 -580
19 -157 201 -225 310 -117 17 18 124 150 236 292 113 143 252 321 311 395 89
112 318 407 768 984 217 280 232 304 232 368 0 43 -28 96 -63 122 -27 20 -43
21 -465 26 -382 4 -437 7 -433 20 11 43 42 181 70 310 17 80 69 322 116 538
47 216 85 409 85 429 0 54 -27 101 -76 129 -51 30 -95 37 -147 22z m-211 -745
c-23 -74 -156 -748 -163 -825 -8 -89 19 -147 81 -177 40 -20 59 -21 379 -21
185 0 337 -2 337 -5 0 -3 -31 -45 -68 -93 -37 -48 -128 -166 -202 -262 -309
-404 -713 -920 -717 -916 -4 4 114 540 168 762 21 88 30 142 25 165 -10 55
-43 99 -89 119 -39 17 -72 19 -382 20 -186 0 -340 1 -341 3 -1 1 47 65 108
142 102 130 210 269 608 785 177 230 249 320 256 320 3 0 3 -8 0 -17z"/>
<path d="M9900 7016 c-112 -31 -187 -93 -237 -194 l-28 -57 0 -700 0 -700 27
-56 c28 -56 79 -117 133 -158 19 -15 23 -20 10 -16 -11 3 -16 2 -11 -2 4 -4
20 -9 34 -9 15 -1 45 -9 67 -17 35 -14 140 -16 876 -17 808 0 839 1 900 20
102 32 187 110 236 217 21 46 27 73 27 133 0 131 31 78 -566 975 -176 264
-336 497 -356 517 -69 72 -70 72 -597 75 -354 2 -481 -1 -515 -11z m1160 -672
c129 -196 295 -447 369 -558 154 -233 169 -263 151 -307 -26 -61 6 -59 -850
-59 l-780 0 0 640 0 640 438 0 437 -1 235 -355z"/>
<path d="M9950 4719 c-59 -24 -100 -85 -100 -149 0 -57 22 -103 66 -136 l37
-29 268 0 c256 0 269 1 296 21 99 73 99 204 0 278 -27 20 -42 21 -285 23 -157
1 -267 -2 -282 -8z"/>
<path d="M4397 3286 c-88 -26 -160 -69 -229 -138 -199 -201 -197 -497 4 -701
50 -51 86 -76 144 -104 70 -32 89 -36 184 -41 177 -8 289 33 400 148 75 77
115 150 138 256 49 230 -92 478 -323 564 -76 28 -245 37 -318 16z m233 -308
c92 -47 128 -167 82 -272 -55 -122 -235 -144 -334 -39 -35 37 -48 73 -48 134
0 83 44 154 115 185 48 21 134 17 185 -8z"/>
<path d="M10668 3274 c-181 -58 -305 -208 -340 -414 -10 -56 -9 -81 5 -150 49
-249 244 -410 497 -410 124 0 235 39 338 119 53 40 130 157 153 230 71 224
-33 482 -241 595 -113 61 -278 74 -412 30z m262 -294 c119 -61 134 -244 28
-334 -81 -69 -190 -66 -266 7 -47 45 -63 83 -63 148 -1 44 5 66 24 95 30 47
64 79 97 93 44 17 137 13 180 -9z"/>
</g>
</svg>
