<?xml version="1.0" standalone="no"?>
<!DOCTYPE svg PUBLIC "-//W3C//DTD SVG 20010904//EN"
 "http://www.w3.org/TR/2001/REC-SVG-20010904/DTD/svg10.dtd">
<svg version="1.0" xmlns="http://www.w3.org/2000/svg"
 width="1024.000000pt" height="1024.000000pt" viewBox="0 0 1024.000000 1024.000000"
 preserveAspectRatio="xMidYMid meet">
<metadata>
Created by potrace 1.16, written by Peter Selinger 2001-2019
</metadata>
<g transform="translate(0.000000,1024.000000) scale(0.100000,-0.100000)"
fill="#00c711ff" stroke="none">
<path d="M5055 8521 c-22 -10 -116 -62 -210 -116 -161 -93 -466 -250 -640
-330 -490 -225 -1009 -370 -1645 -460 -135 -19 -259 -37 -277 -40 -43 -8 -92
-50 -114 -100 -18 -38 -19 -86 -19 -857 0 -974 8 -1117 87 -1508 116 -578 315
-1033 681 -1560 221 -317 587 -698 957 -995 261 -210 760 -553 1082 -744 152
-90 184 -86 420 63 256 160 559 367 778 530 690 516 1175 1067 1489 1693 242
483 366 940 422 1548 12 138 15 323 14 983 0 527 -4 822 -11 840 -15 38 -67
90 -103 101 -17 5 -56 13 -86 16 -934 111 -1669 355 -2445 811 -267 157 -293
165 -380 125z m169 -469 c508 -301 1063 -541 1556 -671 237 -63 569 -128 843
-167 l47 -6 0 -622 c0 -841 -13 -1059 -86 -1425 -142 -710 -486 -1344 -1013
-1872 -302 -301 -600 -540 -1015 -813 -201 -132 -419 -266 -434 -266 -26 0
-454 258 -642 388 -444 304 -910 739 -1179 1097 -156 208 -239 341 -342 547
-171 340 -279 682 -338 1063 -50 319 -54 401 -58 1173 -3 402 -1 732 4 732 4
0 107 15 228 34 551 86 1057 232 1530 441 181 80 494 238 660 333 77 45 144
81 149 81 4 1 45 -21 90 -47z"/>
<path d="M6578 6646 c-21 -8 -49 -21 -62 -29 -13 -9 -159 -161 -323 -339 -164
-177 -354 -383 -423 -458 -69 -74 -224 -243 -345 -375 -370 -404 -455 -496
-555 -605 -54 -58 -109 -120 -124 -137 -15 -18 -33 -33 -39 -32 -7 0 -41 37
-77 81 -36 44 -108 131 -161 193 -52 61 -182 216 -288 343 -225 271 -245 287
-356 287 -103 -1 -174 -44 -221 -135 -24 -47 -24 -153 0 -198 27 -51 321 -399
646 -762 332 -372 360 -396 466 -394 68 0 112 15 163 53 19 14 122 121 230
236 272 292 617 667 747 811 174 192 489 538 747 817 130 142 249 277 264 300
36 56 38 160 5 223 -53 103 -188 158 -294 120z"/>
</g>
</svg>
